<?xml version="1.0" encoding="UTF-8"?>
<!DOCTYPE svg  PUBLIC '-//W3C//DTD SVG 1.1//EN'  'http://www.w3.org/Graphics/SVG/1.1/DTD/svg11.dtd'>
<svg version="1.1" xmlns="http://www.w3.org/2000/svg">
<defs>
<font id="DIN2014-Demi" horiz-adv-x="522">
<font-face font-family="DIN 2014 Demi" font-weight="600" ascent="779" bbox="-43 -199 921 880" cap-height="690" descent="-221" panose-1="2 11 6 4 2 2 2 2 2 4" underline-position="-100" underline-thickness="50" unicode-range="U+0020-00FE" units-per-em="1000" x-height="500"/>
<missing-glyph/>
<glyph glyph-name="space" horiz-adv-x="250" unicode=" "/>
<glyph d="M172 189h-109v501h109v-501zM177 0h-119v118h119v-118z" glyph-name="exclam" horiz-adv-x="235" unicode="!"/>
<glyph d="M145 513h-105v177h105v-177zM304 513h-104v177h104v-177z" glyph-name="quotedbl" horiz-adv-x="344" unicode='"'/>
<glyph d="M152 498l36 192h110l-36 -192h120l36 192h110l-36 -192h92v-97h-110l-20 -106h93v-97h-111l-37 -198h-109l36 198h-120l-36 -198h-111l37 198h-97v97h115l20 106h-98v97h116zM224 295h120l20 106h-120z" glyph-name="numbersign" horiz-adv-x="611" unicode="#"/>
<glyph d="M410 520q-20 26 -41 46q-23 19 -58 27v-202q48 -12 85 -28t61.5 -39.5t37 -56t12.5 -77.5q0 -35 -11 -68t-34.5 -59.5t-59.5 -44.5t-87 -24v-110h-97v110q-132 15 -203 113l91 63q23 -29 50 -48t65 -26l1 6v201q-92 23 -141 71t-49 132q0 36 11 68t33.5 57t57.5 42t84 23 v116h97v-117q121 -16 183 -112zM391 185q0 32 -16.5 55t-63.5 40v-177v-7q45 9 62.5 34t17.5 55zM148 507q0 -35 18.5 -56.5t55.5 -35.5v179q-35 -8 -54.5 -30t-19.5 -57z" glyph-name="dollar" unicode="$"/>
<glyph d="M616 690l-385 -690h-107l386 690h106zM724 144q0 -68 -35 -110.5t-114 -42.5q-71 0 -108.5 40t-37.5 113v52q0 73 38.5 112.5t107.5 39.5q72 0 110.5 -39t38.5 -113v-52zM576 66q32 0 47.5 21.5t15.5 57.5v49q0 78 -63 78q-61 0 -61 -78v-49q0 -37 13.5 -58t47.5 -21z M319 495q0 -68 -35 -110.5t-114 -42.5q-72 0 -109.5 40t-37.5 113v52q0 73 38.5 112.5t108.5 39.5q72 0 110.5 -39t38.5 -113v-52zM170 417q33 0 48 21.5t15 57.5v49q0 78 -63 78q-60 0 -60 -78v-49q0 -37 13.5 -58t46.5 -21z" glyph-name="percent" horiz-adv-x="744" unicode="%"/>
<glyph d="M39 184q0 34 10 63q9 29 25.5 54t37.5 46t45 39q-30 37 -49 74t-19 82q0 36 13.5 65t37.5 49.5t57.5 31.5t72.5 11q47 0 80.5 -12t55.5 -31t32 -44t10 -50q0 -29 -12.5 -53.5t-33 -47t-47 -42.5t-53.5 -40l154 -170q21 49 21 113h108q0 -53 -13.5 -103t-40.5 -93 l115 -126h-139l-46 50q-37 -28 -84.5 -43.5t-107.5 -15.5q-57 0 -100 16.5t-72 43.5t-43.5 61.5t-14.5 71.5zM272 92q37 0 66.5 9t52.5 25l-172 190q-30 -26 -49 -55.5t-19 -64.5q0 -48 33.5 -76t87.5 -28zM202 542q0 -26 12.5 -50t29.5 -46q39 26 67 52t28 57 q0 20 -16.5 37.5t-51.5 17.5q-31 0 -50 -17.5t-19 -50.5z" glyph-name="ampersand" horiz-adv-x="660" unicode="&amp;"/>
<glyph d="M145 513h-105v177h105v-177z" glyph-name="quotesingle" horiz-adv-x="185" unicode="'"/>
<glyph d="M237 -116q-53 36 -86.5 67.5t-52 63.5t-25.5 66.5t-7 76.5v380q0 42 7 76.5t25.5 66.5t52 63.5t86.5 67.5l61 -84q-35 -26 -59 -47t-39 -44.5t-21.5 -52.5t-6.5 -69v-334q0 -41 6.5 -69.5t21.5 -52t39 -45t59 -47.5z" glyph-name="parenleft" horiz-adv-x="317" unicode="("/>
<glyph d="M26 -33q35 26 59 47.5t39 45t21.5 52t6.5 69.5v334q0 40 -6.5 69t-21.5 52.5t-39 44.5t-59 47l61 84q53 -36 86.5 -67.5t52 -63.5t25.5 -66.5t7 -76.5v-380q0 -42 -7 -76.5t-25.5 -66.5t-52 -63.5t-86.5 -67.5z" glyph-name="parenright" horiz-adv-x="317" unicode=")"/>
<glyph d="M244 580l93 59l42 -72l-96 -52l96 -51l-42 -71l-93 57l5 -109h-83l3 108l-92 -57l-42 72l97 51l-96 52l41 72l92 -58l-3 109h83z" glyph-name="asterisk" horiz-adv-x="421" unicode="*"/>
<glyph d="M57 400h147v149h93v-149h149v-92h-149v-148h-93v148h-147v92z" glyph-name="plus" unicode="+"/>
<glyph d="M178 -52l-118 -101v291h118v-190z" glyph-name="comma" horiz-adv-x="238" unicode=","/>
<glyph d="M30 336h259v-94h-259v94z" glyph-name="hyphen" horiz-adv-x="319" unicode="-"/>
<glyph d="M198 0h-138v138h138v-138z" glyph-name="period" horiz-adv-x="258" unicode="."/>
<glyph d="M47 -116l336 928h98l-336 -928h-98z" glyph-name="slash" horiz-adv-x="485" unicode="/"/>
<glyph d="M478 202q0 -54 -17.5 -93.5t-47.5 -65.5t-69.5 -39t-82.5 -13t-82.5 13t-69.5 39t-47.5 65.5t-17.5 93.5v285q0 55 17.5 95t47.5 66t69.5 38.5t82.5 12.5t82.5 -12.5t69.5 -38.5t47.5 -65.5t17.5 -94.5v-286zM362 481q0 56 -27 86.5t-74 30.5q-48 0 -75 -30.5t-27 -86.5 v-272q0 -56 27 -86.5t75 -30.5q47 0 74 30.5t27 86.5v272z" glyph-name="zero" unicode="0"/>
<glyph d="M340 0h-116v565l-99 -68v117l106 76h109v-690z" glyph-name="one" unicode="1"/>
<glyph d="M462 0h-417v82l237 278q34 39 52 74t18 71q0 24 -8 41.5t-21.5 29.5t-31.5 18t-37 6q-41 0 -68.5 -24t-29.5 -71h-106q0 44 16.5 79.5t45 61t66 39.5t80.5 14q44 0 82.5 -14.5t66.5 -40t44 -62t16 -79.5q0 -33 -10 -62t-25.5 -55t-34 -48.5t-34.5 -42.5l-163 -195h262 v-100z" glyph-name="two" unicode="2"/>
<glyph d="M190 406h48q54 0 82.5 27t28.5 76q0 38 -26.5 64.5t-71.5 26.5q-42 0 -68 -24.5t-30 -60.5h-106q1 42 18 76t45.5 58t65.5 37t79 13q45 0 83.5 -14.5t66.5 -40t43.5 -59.5t15.5 -73q0 -57 -28.5 -95.5t-69.5 -58.5q48 -21 78 -62t30 -105q0 -41 -14.5 -77.5t-41.5 -63.5 t-66 -43t-89 -16q-53 0 -93.5 14t-69 39.5t-44.5 60t-18 75.5h106q6 -38 33 -63t81 -25q45 0 73 29t28 73q0 53 -30.5 82.5t-90.5 29.5h-48v100z" glyph-name="three" unicode="3"/>
<glyph d="M376 690l-221 -485h162v188h116v-188h63v-101h-63v-104h-116v104h-303v82l239 504h123z" glyph-name="four" unicode="4"/>
<glyph d="M261 367q-31 0 -51 -14.5t-33 -36.5h-105v374h374v-109h-261v-146q16 16 41 28t65 12q87 0 134.5 -64t47.5 -185q0 -114 -53 -174.5t-157 -60.5q-42 0 -78.5 12.5t-64.5 36t-45.5 57t-21.5 74.5h114q9 -38 32.5 -58.5t61.5 -20.5q45 0 70.5 30.5t25.5 99.5 q0 72 -22.5 108.5t-73.5 36.5z" glyph-name="five" unicode="5"/>
<glyph d="M226 397q16 8 32 11q17 2 34 2q40 0 74.5 -15.5t59 -42.5t38.5 -64.5t14 -81.5q0 -52 -16.5 -92t-45.5 -67.5t-69 -41.5t-86 -14t-86 14t-69 41t-46 66.5t-17 91.5q0 38 16.5 84t39.5 97l141 305h126zM159 203q0 -51 27 -81t75 -30t74.5 30t26.5 81q0 50 -26.5 80.5 t-74.5 30.5t-75 -30.5t-27 -80.5z" glyph-name="six" unicode="6"/>
<glyph d="M62 476v214h406v-89l-207 -601h-121l208 589h-186v-113h-100z" glyph-name="seven" unicode="7"/>
<glyph d="M38 193q0 29 8 55q9 26 23.5 47.5t33.5 37.5t39 25q-42 21 -68 61.5t-26 89.5q0 45 17.5 80t47 59.5t68 37.5t80.5 13t80.5 -13t68 -37.5t47 -59.5t17.5 -80q0 -49 -26 -89.5t-68 -61.5q21 -9 40 -25t33 -37.5t22.5 -47.5t8.5 -55q0 -47 -18 -84.5t-49 -63.5t-71 -40 t-85 -14t-85 14t-71 40t-49 63.5t-18 84.5zM154 200q0 -23 8 -42.5t22 -34.5t34 -23.5t43 -8.5q22 0 42 8.5t34.5 23.5t23 34.5t8.5 42.5q0 25 -9.5 45t-25 34t-35 21.5t-38.5 7.5q-20 0 -39 -7.5t-34 -21.5t-24.5 -34t-9.5 -45zM163 501q0 -42 28 -70.5t70 -28.5 q41 0 69.5 28.5t28.5 70.5q0 41 -28.5 69t-69.5 28q-42 0 -70 -28t-28 -69z" glyph-name="eight" unicode="8"/>
<glyph d="M296 293q-16 -8 -32 -11q-17 -3 -34 -3q-41 0 -75 15.5t-58.5 43t-38.5 65t-14 81.5q0 52 16.5 92t46 67.5t69 41.5t85.5 14t86 -14t69.5 -41t46 -66.5t16.5 -91.5q0 -38 -16.5 -84t-39.5 -97l-140 -305h-126zM363 487q0 51 -26.5 81t-75.5 30q-48 0 -74.5 -30t-26.5 -81 q0 -50 26.5 -80.5t74.5 -30.5q49 0 75.5 30.5t26.5 80.5z" glyph-name="nine" unicode="9"/>
<glyph d="M178 381h-118v119h118v-119zM178 0h-118v118h118v-118z" glyph-name="colon" horiz-adv-x="233" unicode=":"/>
<glyph d="M178 -64l-118 -102v284h118v-182zM178 381h-118v119h118v-119z" glyph-name="semicolon" horiz-adv-x="233" unicode=";"/>
<glyph d="M203 348l208 -111v-120l-325 183v97l325 183v-120z" glyph-name="less" unicode="&lt;"/>
<glyph d="M67 476h389v-99h-389v99zM67 304h389v-98h-389v98z" glyph-name="equal" unicode="="/>
<glyph d="M108 460v120l325 -183v-97l-325 -183v120l208 111z" glyph-name="greater" unicode="&gt;"/>
<glyph d="M189 189v72q0 28 6.5 47t27.5 39l47 43q34 32 52 58t18 63q0 43 -27.5 65.5t-64.5 22.5q-38 0 -65.5 -21.5t-28.5 -63.5h-111q0 45 16.5 79.5t44 58t65 35.5t79.5 12t80 -12.5t66.5 -36.5t45 -59.5t16.5 -82.5q0 -30 -8.5 -56t-22.5 -49t-32.5 -43t-38.5 -39l-31 -30 q-16 -15 -24 -28.5t-8 -39.5v-34h-102zM299 0h-118v118h118v-118z" glyph-name="question" horiz-adv-x="486" unicode="?"/>
<glyph d="M631 234q0 -50 16 -67t41 -17q38 0 54.5 34.5t16.5 100.5q0 85 -26.5 143.5t-70 95t-99.5 53t-114 16.5q-83 0 -141.5 -28.5t-95.5 -74t-53.5 -102t-16.5 -112.5q0 -80 25 -139.5t68 -98.5t99.5 -58.5t119.5 -19.5q65 0 116 12t105 39l39 -76q-14 -11 -38.5 -23 t-58.5 -21.5t-76.5 -16t-91.5 -6.5q-78 0 -152.5 26t-132 77t-93 127.5t-35.5 177.5q0 98 34 174t91.5 128.5t132 79.5t155.5 27q86 0 161.5 -26.5t132 -77.5t89.5 -125.5t33 -170.5q0 -51 -11 -93t-33 -71.5t-55 -46t-77 -16.5q-42 0 -75 16t-53 51q-16 -34 -47 -50.5 t-83 -16.5q-83 0 -125.5 52.5t-42.5 137.5v52q0 94 46 141.5t122 47.5q31 0 54 -7t40 -20v22h106v-250zM446 150q45 0 62 24.5t17 71.5v50q0 54 -18.5 77.5t-60.5 23.5q-41 0 -58.5 -25.5t-17.5 -75.5v-41q0 -51 17 -78t59 -27z" glyph-name="at" horiz-adv-x="898" unicode="@"/>
<glyph d="M2 0l240 690h110l240 -690h-123l-47 143h-249l-47 -143h-124zM205 243h184l-92 279z" glyph-name="A" horiz-adv-x="595" unicode="A"/>
<glyph d="M298 690q245 0 245 -179q0 -54 -28 -93.5t-73 -56.5q59 -17 91 -57t32 -106q0 -39 -13 -75t-42.5 -63t-76 -43.5t-113.5 -16.5h-244v690h222zM192 100h121q70 0 103 27t33 77q0 55 -36.5 79.5t-113.5 24.5h-107v-208zM192 408h113q65 0 93.5 26.5t28.5 69.5q0 20 -6 36 t-21.5 27t-42 17t-67.5 6h-98v-182z" glyph-name="B" horiz-adv-x="602" unicode="B"/>
<glyph d="M445 476q-14 63 -48 92.5t-91 29.5q-69 0 -105.5 -48.5t-36.5 -160.5v-88q0 -111 36.5 -160t105.5 -49q60 0 92.5 29.5t46.5 92.5h111q-17 -116 -82 -169.5t-168 -53.5q-58 0 -105.5 18t-81.5 55.5t-52.5 96.5t-18.5 140v88q0 81 18.5 140t52.5 96.5t81.5 55.5t105.5 18 q103 0 168.5 -55t82.5 -168h-112z" glyph-name="C" horiz-adv-x="587" unicode="C"/>
<glyph d="M76 0v690h233q58 0 106 -16.5t82 -52.5t52.5 -94t18.5 -141v-82q0 -83 -18.5 -141t-52.5 -94t-82 -52.5t-106 -16.5h-233zM309 100q75 0 109 48.5t34 155.5v82q0 107 -34 155t-109 48h-117v-489h117z" glyph-name="D" horiz-adv-x="616" unicode="D"/>
<glyph d="M499 690v-101h-307v-182h277v-100h-277v-207h307v-100h-423v690h423z" glyph-name="E" horiz-adv-x="533" unicode="E"/>
<glyph d="M499 690v-101h-307v-198h277v-100h-277v-291h-116v690h423z" glyph-name="F" horiz-adv-x="525" unicode="F"/>
<glyph d="M560 354v-53q0 -81 -18 -140t-51 -96.5t-80 -55.5t-105 -18t-105.5 18t-81.5 55.5t-52.5 96.5t-18.5 140v83q0 83 18.5 142.5t52.5 98t81.5 56.5t105.5 18q106 0 170 -57t81 -166h-112q-13 60 -46.5 91t-92.5 31q-69 0 -105.5 -48.5t-36.5 -160.5v-88q0 -112 36.5 -160.5 t105.5 -48.5q66 0 100 39.5t40 121.5h-137v101h251z" glyph-name="G" horiz-adv-x="608" unicode="G"/>
<glyph d="M192 407h264v283h116v-690h-116v307h-264v-307h-116v690h116v-283z" glyph-name="H" horiz-adv-x="648" unicode="H"/>
<glyph d="M202 0h-116v690h116v-690z" glyph-name="I" horiz-adv-x="287" unicode="I"/>
<glyph d="M94 142q17 -23 42 -36.5t59 -13.5q30 0 53 9t38.5 30t23 56t7.5 86v417h116v-417q0 -77 -16 -130.5t-46 -87t-73.5 -49t-97.5 -15.5q-66 0 -118.5 24t-84.5 72z" glyph-name="J" horiz-adv-x="509" unicode="J"/>
<glyph d="M494 0l-200 315l-102 -131v-184h-116v690h116v-333l254 333h142l-218 -278l263 -412h-139z" glyph-name="K" horiz-adv-x="642" unicode="K"/>
<glyph d="M192 100h307v-100h-423v690h116v-590z" glyph-name="L" horiz-adv-x="503" unicode="L"/>
<glyph d="M385 290l199 400h111v-690h-112v462l-158 -329h-82l-155 326v-459h-112v690h110z" glyph-name="M" horiz-adv-x="771" unicode="M"/>
<glyph d="M572 690v-690h-103l-281 469v-469h-112v690h100l284 -475v475h112z" glyph-name="N" horiz-adv-x="648" unicode="N"/>
<glyph d="M565 301q0 -81 -18.5 -140t-52.5 -96.5t-82 -55.5t-106 -18t-105.5 18t-81.5 55.5t-52.5 96.5t-18.5 140v88q0 81 18.5 140t52.5 96.5t81.5 55.5t105.5 18t106 -18t82 -55.5t52.5 -96.5t18.5 -140v-88zM164 301q0 -112 36.5 -160.5t105.5 -48.5t106 48.5t37 160.5v88 q0 112 -37 160.5t-106 48.5t-105.5 -48.5t-36.5 -160.5v-88z" glyph-name="O" horiz-adv-x="613" unicode="O"/>
<glyph d="M192 252v-252h-116v690h235q120 0 187 -55.5t67 -162.5q0 -106 -66.5 -163t-187.5 -57h-119zM299 352q80 0 115 30t35 90q0 57 -35 87t-115 30h-107v-237h107z" glyph-name="P" horiz-adv-x="589" unicode="P"/>
<glyph d="M565 301q0 -108 -34 -179l93 -83l-65 -74l-88 78q-32 -27 -74 -39.5t-91 -12.5q-58 0 -105.5 18t-81.5 55.5t-52.5 96.5t-18.5 140v88q0 81 18.5 140t52.5 96.5t81.5 55.5t105.5 18t106 -18t82 -55.5t52.5 -96.5t18.5 -140v-88zM164 301q0 -112 36.5 -160.5t105.5 -48.5 q49 0 82 24l-88 79l67 75l72 -65q10 37 10 96v88q0 112 -37 160.5t-106 48.5t-105.5 -48.5t-36.5 -160.5v-88z" glyph-name="Q" horiz-adv-x="617" unicode="Q"/>
<glyph d="M459 0l-133 280h-134v-280h-116v690h235q120 0 187 -51.5t67 -154.5q0 -72 -32.5 -117.5t-92.5 -67.5l147 -299h-128zM303 380q74 0 110 22.5t36 81.5t-36 82t-110 23h-111v-209h111z" glyph-name="R" horiz-adv-x="611" unicode="R"/>
<glyph d="M435 523q-13 18 -27 31q-14 14 -31 24t-39.5 15t-51.5 5q-54 0 -83.5 -23t-29.5 -67q0 -25 9.5 -42.5t28.5 -30.5t46.5 -22.5t63.5 -17.5q52 -11 91.5 -27.5t66 -40.5t40 -58t13.5 -80q0 -39 -13.5 -74.5t-42 -63t-73 -44t-106.5 -16.5q-89 0 -152 27.5t-106 85.5l91 63 q15 -18 31 -32t35 -23.5t42 -14.5t53 -5q36 0 60 7.5t38.5 20t20.5 29t6 35.5q0 21 -6.5 37.5t-24 30.5t-46.5 25.5t-74 21.5q-100 21 -154 71t-54 138q0 39 13 73.5t41 61t71.5 41.5t104.5 15q163 0 236 -113z" glyph-name="S" horiz-adv-x="573" unicode="S"/>
<glyph d="M520 690v-101h-198v-589h-116v589h-199v101h513z" glyph-name="T" horiz-adv-x="527" unicode="T"/>
<glyph d="M592 690v-410q0 -77 -19 -131.5t-53 -89.5t-81.5 -51.5t-104.5 -16.5t-104.5 16.5t-81.5 51.5t-53 89.5t-19 130.5v411h116v-411q0 -99 35.5 -143t106.5 -44t106.5 44t35.5 143v411h116z" glyph-name="U" horiz-adv-x="668" unicode="U"/>
<glyph d="M133 690l170 -505l172 505h127l-245 -690h-106l-245 690h127z" glyph-name="V" horiz-adv-x="608" unicode="V"/>
<glyph d="M283 0h-112l-163 690h124l106 -493l141 493h107l144 -496l106 496h124l-163 -690h-113l-151 502z" glyph-name="W" horiz-adv-x="868" unicode="W"/>
<glyph d="M16 0l199 356l-178 334h127l123 -236l124 236h126l-179 -334l200 -356h-126l-145 251l-144 -251h-127z" glyph-name="X" horiz-adv-x="574" unicode="X"/>
<glyph d="M147 690l138 -276l139 276h134l-215 -402v-288h-116v288l-215 402h135z" glyph-name="Y" horiz-adv-x="571" unicode="Y"/>
<glyph d="M483 690v-77l-305 -513h315v-100h-463v77l305 512h-305v101h453z" glyph-name="Z" horiz-adv-x="519" unicode="Z"/>
<glyph d="M70 792h224v-92h-118v-710h118v-92h-224v894z" glyph-name="bracketleft" horiz-adv-x="335" unicode="["/>
<glyph d="M133 812l336 -928h-98l-336 928h98z" glyph-name="backslash" horiz-adv-x="485" unicode="\"/>
<glyph d="M265 792v-894h-224v91h118v712h-118v91h224z" glyph-name="bracketright" horiz-adv-x="335" unicode="]"/>
<glyph d="M312 690l176 -253h-120l-107 156l-103 -156h-123l174 253h103z" glyph-name="asciicircum" unicode="^"/>
<glyph d="M526 -78v-85h-526v85h526z" glyph-name="underscore" horiz-adv-x="526" unicode="_"/>
<glyph d="M260 567h-101l-91 158h122z" glyph-name="grave" horiz-adv-x="329" unicode="`"/>
<glyph d="M32 147q0 40 14 68t39 46t59 26t74 8h108v42q0 47 -21.5 63.5t-77.5 16.5q-20 0 -35.5 -1.5t-28 -6.5t-22.5 -13.5t-19 -23.5l-77 54q27 44 71 63.5t118 19.5q48 0 85 -8.5t61.5 -28.5t37.5 -53t13 -83v-336h-105v46q-18 -29 -44 -42t-72 -13q-83 0 -130.5 40.5 t-47.5 115.5zM326 213h-100q-48 0 -68.5 -16.5t-20.5 -49.5q0 -35 23.5 -50t61.5 -15q24 0 43.5 4.5t33 16.5t20.5 32.5t7 53.5v24z" glyph-name="a" horiz-adv-x="488" unicode="a"/>
<glyph d="M160 461q39 48 120 48q92 0 145.5 -58t53.5 -169v-63q0 -50 -12.5 -92t-37 -72t-62 -47t-87.5 -17q-83 0 -120 45v-36h-103v690h103v-229zM266 83q29 0 49 10.5t33 29.5t18.5 44.5t5.5 54.5v58q0 66 -26 101t-80 35q-52 0 -78.5 -34t-27.5 -96v-64q0 -29 5.5 -54.5 t18 -44.5t33 -29.5t49.5 -10.5z" glyph-name="b" horiz-adv-x="515" unicode="b"/>
<glyph d="M434 76q-25 -45 -69 -65t-109 -20q-53 0 -93.5 16t-69 46t-43 71.5t-14.5 92.5v68q0 109 58 166.5t166 57.5q57 0 102.5 -20.5t71.5 -60.5l-82 -57q-14 20 -38 32.5t-56 12.5q-59 0 -87.5 -35.5t-28.5 -100.5v-58q0 -29 5.5 -54.5t19 -44.5t36 -29.5t55.5 -10.5 q32 0 56.5 11.5t38.5 37.5z" glyph-name="c" horiz-adv-x="445" unicode="c"/>
<glyph d="M355 690h106v-690h-106v35q-20 -21 -49 -32.5t-71 -11.5q-50 0 -87.5 17t-62 47t-37 71.5t-12.5 90.5v68q0 109 54 166.5t145 57.5q78 0 120 -44v225zM249 83q30 0 50.5 10.5t32.5 29.5t17.5 44.5t5.5 54.5v64q0 62 -27 96t-79 34q-54 0 -80.5 -35t-26.5 -101v-58 q0 -29 6 -54.5t18.5 -44.5t33 -29.5t49.5 -10.5z" glyph-name="d" horiz-adv-x="519" unicode="d"/>
<glyph d="M434 76q-26 -46 -69.5 -65.5t-109.5 -19.5q-54 0 -94.5 16.5t-68.5 46.5t-42 71.5t-14 91.5v68q0 111 52 167.5t151 56.5q103 0 152.5 -59t49.5 -171v-55h-299v-2q0 -29 6 -54.5t19 -44.5t33.5 -29.5t50.5 -10.5q44 0 66 13t37 36zM239 416q-47 0 -69.5 -29.5 t-26.5 -80.5h191q-6 110 -95 110z" glyph-name="e" horiz-adv-x="487" unicode="e"/>
<glyph d="M81 500v31q0 44 8.5 74.5t28 49t50.5 27t76 8.5h31v-96h-23q-42 0 -53.5 -19.5t-11.5 -63.5v-11h88v-92h-88v-408h-106v408h-64v92h64z" glyph-name="f" horiz-adv-x="294" unicode="f"/>
<glyph d="M355 500h106v-490q0 -58 -16 -97.5t-44.5 -63.5t-68.5 -34.5t-89 -10.5q-68 0 -112 19.5t-74 67.5l75 54q17 -25 41.5 -37.5t66.5 -12.5q60 0 87.5 27t27.5 88v23q-41 -42 -120 -42q-50 0 -87.5 17t-62 47t-37 71.5t-12.5 90.5v68q0 109 54 166.5t145 57.5 q41 0 70.5 -11.5t49.5 -32.5v35zM249 83q30 0 50.5 10.5t32.5 29.5t17.5 44.5t5.5 54.5v58q0 65 -26 100.5t-80 35.5t-80.5 -35t-26.5 -101v-58q0 -29 6 -54.5t18.5 -44.5t33 -29.5t49.5 -10.5z" glyph-name="g" horiz-adv-x="519" unicode="g"/>
<glyph d="M57 690h107v-233q16 23 44.5 37.5t77.5 14.5q39 0 72 -10.5t57.5 -33.5t38.5 -60.5t14 -91.5v-313h-106v301q0 33 -7 55t-20 34.5t-30 18t-38 5.5q-50 0 -76.5 -30.5t-26.5 -81.5v-302h-107v690z" glyph-name="h" horiz-adv-x="526" unicode="h"/>
<glyph d="M72 500h107v-500h-107v500zM67 690h117v-109h-117v109z" glyph-name="i" horiz-adv-x="251" unicode="i"/>
<glyph d="M181 -31q0 -44 -10 -74.5t-32 -49t-56 -27t-83 -8.5v94q25 0 39.5 6t22.5 17t10.5 26.5t2.5 34.5v512h106v-531zM70 690h116v-109h-116v109z" glyph-name="j" horiz-adv-x="244" unicode="j"/>
<glyph d="M462 500l-191 -215l221 -285h-129l-165 202l-34 -38v-164h-107v690h107v-385l167 195h131z" glyph-name="k" horiz-adv-x="495" unicode="k"/>
<glyph d="M57 690h107v-508q0 -20 2.5 -36.5t10.5 -28t23 -17.5t40 -6v-94q-49 0 -83.5 8.5t-56.5 27t-32.5 48.5t-10.5 73v533z" glyph-name="l" horiz-adv-x="282" unicode="l"/>
<glyph d="M57 500h105v-45q15 23 43.5 38.5t73.5 15.5q97 0 143 -72q25 34 62 53t84 19q81 0 127 -49t46 -147v-313h-107v301q0 62 -23.5 87.5t-65.5 25.5q-40 0 -65.5 -28t-27.5 -79v-307h-106v301q0 64 -25 88.5t-63 24.5q-42 0 -68 -29.5t-26 -82.5v-302h-107v500z" glyph-name="m" horiz-adv-x="798" unicode="m"/>
<glyph d="M57 500h105v-45q17 23 45.5 38.5t78.5 15.5q39 0 72 -10.5t57.5 -33.5t38.5 -60.5t14 -91.5v-313h-106v301q0 33 -7 55t-20 34.5t-30 18t-38 5.5q-50 0 -76.5 -30.5t-26.5 -81.5v-302h-107v500z" glyph-name="n" horiz-adv-x="526" unicode="n"/>
<glyph d="M461 219q0 -50 -12.5 -92t-38.5 -72t-66 -47t-95 -17q-53 0 -92.5 16t-66.5 46t-40.5 72t-13.5 94v63q0 111 55.5 169t157.5 58t157 -58t55 -169v-63zM249 83q28 0 48.5 10.5t33 29.5t18.5 44.5t6 54.5v58q0 66 -26 101t-80 35t-80.5 -35.5t-26.5 -100.5v-58 q0 -29 5.5 -54.5t18 -44.5t33 -29.5t50.5 -10.5z" glyph-name="o" horiz-adv-x="497" unicode="o"/>
<glyph d="M482 217q0 -49 -12 -90.5t-36.5 -71.5t-61.5 -47t-87 -17q-44 0 -73 10.5t-48 30.5v-222h-107v690h107v-40q19 23 49 36t73 13q91 0 143.5 -58t52.5 -166v-68zM270 83q28 0 48.5 10.5t33 29.5t18.5 44.5t6 54.5v58q0 66 -26 101t-80 35q-53 0 -79 -34t-27 -96v-64 q0 -29 5 -54.5t17.5 -44.5t33 -29.5t50.5 -10.5z" glyph-name="p" horiz-adv-x="519" unicode="p"/>
<glyph d="M355 500h106v-690h-106v224q-41 -43 -120 -43q-50 0 -87.5 17t-62 47t-37 71.5t-12.5 90.5v68q0 109 54 166.5t145 57.5q41 0 70.5 -11.5t49.5 -32.5v35zM249 83q57 0 81.5 36.5t24.5 90.5v70q0 65 -26 100.5t-80 35.5t-80.5 -35t-26.5 -101v-58q0 -29 6 -54.5 t18.5 -44.5t33 -29.5t49.5 -10.5z" glyph-name="q" horiz-adv-x="519" unicode="q"/>
<glyph d="M328 375q-12 17 -29 28t-43 11q-41 0 -66.5 -29t-25.5 -83v-302h-107v500h105v-45q14 22 40.5 38t71.5 16q48 0 82 -18.5t57 -55.5z" glyph-name="r" horiz-adv-x="403" unicode="r"/>
<glyph d="M334 369q-19 23 -41 34q-23 11 -68 11q-34 0 -56 -12t-22 -39q0 -32 25.5 -44.5t69.5 -17.5q42 -5 75.5 -15.5t57.5 -29t37 -46t13 -67.5q0 -69 -47.5 -110.5t-144.5 -41.5q-77 0 -123.5 20.5t-77.5 62.5l81 58q17 -23 43 -35t76 -12q42 0 64.5 14.5t22.5 40.5 q0 31 -23 43t-81 20q-36 4 -67.5 14.5t-55.5 29t-38 46.5t-14 67q0 67 47.5 108t139.5 41q62 0 109.5 -18t76.5 -65z" glyph-name="s" horiz-adv-x="465" unicode="s"/>
<glyph d="M17 500h64v110h106v-110h106v-92h-106v-229q0 -44 11.5 -63.5t53.5 -19.5h41v-96h-49q-45 0 -76 8t-50.5 27t-28 49.5t-8.5 74.5v249h-64v92z" glyph-name="t" horiz-adv-x="324" unicode="t"/>
<glyph d="M468 0h-105v45q-17 -27 -44 -40.5t-79 -13.5q-39 0 -72 10.5t-58 34t-39 61t-14 91.5v312h107v-301q0 -33 7 -55t20 -35t30.5 -18.5t38.5 -5.5q50 0 76 30.5t26 82.5v302h106v-500z" glyph-name="u" horiz-adv-x="526" unicode="u"/>
<glyph d="M500 500l-195 -500h-102l-199 500h118l130 -357l129 357h119z" glyph-name="v" horiz-adv-x="504" unicode="v"/>
<glyph d="M236 0h-89l-141 500h111l84 -315l112 315h82l119 -317l84 317h112l-142 -500h-88l-122 340z" glyph-name="w" horiz-adv-x="716" unicode="w"/>
<glyph d="M356 0l-114 167l-114 -167h-120l172 256l-156 244h121l97 -158l98 158h120l-156 -244l173 -256h-121z" glyph-name="x" horiz-adv-x="485" unicode="x"/>
<glyph d="M118 500l127 -352l114 352h110l-176 -520q-16 -48 -33 -80.5t-41 -52.5t-59 -28.5t-87 -8.5v98q26 0 45 3t33.5 12t25 26t19.5 45l-191 506h113z" glyph-name="y" horiz-adv-x="473" unicode="y"/>
<glyph d="M274 408h-238v92h377v-77l-237 -331h241v-92h-382v77z" glyph-name="z" horiz-adv-x="449" unicode="z"/>
<glyph d="M206 416q0 -32 -11 -47t-34 -23q23 -8 34 -28t11 -42v-200q0 -27 4.5 -42.5t14 -23.5t23 -10.5t31.5 -2.5h18v-92h-33q-38 0 -68.5 6t-51.5 23t-32.5 47t-11.5 79v187q0 29 -12 40.5t-38 11.5h-19v94h19q26 0 38 11.5t12 40.5v187q0 49 11.5 79t32.5 47t51.5 23t68.5 6 h33v-92h-18q-18 0 -31.5 -2.5t-23 -10.5t-14 -23.5t-4.5 -42.5v-200z" glyph-name="braceleft" horiz-adv-x="323" unicode="{"/>
<glyph d="M185 -116h-100v928h100v-928z" glyph-name="bar" horiz-adv-x="274" unicode="|"/>
<glyph d="M121 616q0 27 -4.5 42.5t-13.5 23.5t-22.5 10.5t-31.5 2.5h-18v92h33q38 0 68.5 -6t51.5 -23t32.5 -47t11.5 -79v-187q0 -29 12 -40.5t38 -11.5h19v-94h-19q-26 0 -38 -11.5t-12 -40.5v-187q0 -49 -11.5 -79t-32.5 -47t-51.5 -23t-68.5 -6h-33v92h18q18 0 31.5 2.5 t22.5 10.5t13.5 23.5t4.5 42.5v200q0 22 11 42t34 28q-23 8 -34 23t-11 47v200z" glyph-name="braceright" horiz-adv-x="317" unicode="}"/>
<glyph d="M345 267q-32 0 -54 7t-40 15.5t-35.5 15.5t-39.5 7q-29 0 -52.5 -12t-40.5 -34l-73 59q29 36 71 58t95 22q32 0 54 -7t40 -15.5t35 -15.5t40 -7q29 0 53 12.5t41 34.5l72 -59q-30 -37 -72 -59t-94 -22z" glyph-name="asciitilde" unicode="~"/>
<glyph glyph-name="uni00A0" horiz-adv-x="250" unicode=" "/>
<glyph d="M172 311h-109v-501h109v501zM177 500h-119v-118h119v118z" glyph-name="exclamdown" horiz-adv-x="235" unicode="¡"/>
<glyph d="M470 77q-40 -69 -131 -81v-112h-96v113q-83 14 -127 72.5t-44 149.5v64q0 94 44 150t127 70v119h96v-118q42 -7 76 -26.5t55 -51.5l-82 -57q-14 21 -38 33.5t-56 12.5q-59 0 -87.5 -35.5t-28.5 -101.5v-54q0 -30 5.5 -55t19 -44t36 -29.5t55.5 -10.5q32 0 56.5 11.5 t38.5 37.5z" glyph-name="cent" unicode="¢"/>
<glyph d="M25 100h72v195h-72v101h72v22q0 76 15.5 129.5t44 87.5t68 49t87.5 15q62 0 109.5 -22.5t79.5 -73.5l-96 -55q-15 20 -36.5 35t-53.5 15q-25 0 -44 -9t-32 -30t-19.5 -55.5t-6.5 -85.5v-22h142v-101h-142v-195h268v-100h-456v100z" glyph-name="sterling" unicode="£"/>
<glyph d="M62 366q0 56 26 100l-73 74l72 72l72 -73q47 28 102 28q54 0 101 -28l74 74l72 -72l-74 -74q28 -47 28 -101q0 -55 -28 -102l74 -73l-72 -72l-74 74q-23 -13 -48 -20t-53 -7t-53.5 7t-47.5 20l-73 -73l-72 72l73 73q-26 46 -26 101zM160 366q0 -22 8 -41t21.5 -33.5 t32 -22.5t39.5 -8q45 0 74 30.5t29 74.5t-29 75t-74 31q-21 0 -39.5 -8.5t-32 -23t-21.5 -33.5t-8 -41z" glyph-name="currency" unicode="¤"/>
<glyph d="M197 228v60h-138v97h84l-120 305h128l104 -301l115 301h129l-132 -305h84v-97h-138v-60h138v-97h-138v-131h-116v131h-138v97h138z" glyph-name="yen" unicode="¥"/>
<glyph d="M190 0h-116v243h116v-243zM190 447h-116v243h116v-243z" glyph-name="brokenbar" horiz-adv-x="258" unicode="¦"/>
<glyph d="M184 -40q2 -23 14.5 -39t50.5 -16q36 0 52.5 15.5t16.5 38.5q0 26 -20.5 45.5t-72.5 36.5q-37 12 -69.5 26.5t-57 37.5t-38.5 57.5t-14 87.5q0 58 25 98.5t70 62.5q-30 20 -49.5 50.5t-19.5 76.5q0 69 48 111t131 42q88 0 130 -39.5t43 -111.5h-109q-2 23 -14 39t-51 16 q-36 0 -52 -15.5t-16 -38.5q0 -27 20.5 -46.5t74.5 -36.5q36 -12 68 -26t56 -37t38 -58t14 -87q0 -58 -25 -98.5t-70 -62.5q30 -20 49.5 -51t19.5 -76q0 -69 -48 -111t-131 -42q-88 0 -130 39.5t-43 111.5h109zM344 250q0 42 -24.5 68t-69.5 26t-70 -24.5t-25 -69.5 q0 -51 26.5 -73t68.5 -22q45 0 69.5 25t24.5 70z" glyph-name="section" horiz-adv-x="518" unicode="§"/>
<glyph d="M52 690h109v-105h-109v105zM259 690h108v-105h-108v105z" glyph-name="dieresis" horiz-adv-x="420" unicode="¨"/>
<glyph d="M41 250q0 92 34.5 172.5t94.5 140t140 93.5t171 34t171 -34t140 -93.5t94.5 -140t34.5 -172.5t-34.5 -172.5t-94.5 -140t-140 -93.5t-171 -34t-171 34t-140 93.5t-94.5 140t-34.5 172.5zM143 250q0 -72 26 -135t72 -110t107.5 -74t132.5 -27t132.5 27t107 74t71.5 110 t26 135t-26 135t-71.5 109.5t-107 74t-132.5 27.5t-132.5 -27.5t-107.5 -74t-72 -109.5t-26 -135zM665 76q-25 -45 -69 -65t-109 -20q-53 0 -93.5 16t-69 46t-43 71.5t-14.5 92.5v68q0 109 58 166.5t166 57.5q57 0 102.5 -20.5t71.5 -60.5l-82 -57q-14 20 -38 32.5t-56 12.5 q-59 0 -87.5 -35.5t-28.5 -100.5v-58q0 -29 5.5 -54.5t19 -44.5t36 -29.5t55.5 -10.5q32 0 56.5 11.5t38.5 37.5z" glyph-name="copyright" horiz-adv-x="967" unicode="©"/>
<glyph d="M20 466q0 51 32 73.5t87 22.5h67v21q0 28 -13.5 38.5t-46.5 10.5q-27 0 -41 -7t-26 -27l-52 36q17 29 46 43.5t78 14.5q62 0 94.5 -22t32.5 -79v-217h-72v26q-13 -18 -29.5 -24t-45.5 -6q-50 0 -80.5 24t-30.5 72zM206 505h-59q-30 0 -42 -9.5t-12 -29.5t13.5 -28.5 t36.5 -8.5q29 0 46 12t17 51v13z" glyph-name="ordfeminine" horiz-adv-x="316" unicode="ª"/>
<glyph d="M262 514v-125l-108 -106l108 -107v-124l-232 231zM471 514v-125l-107 -106l107 -107v-124l-232 231z" glyph-name="guillemotleft" horiz-adv-x="519" unicode="«"/>
<glyph d="M367 176v130h-336v97h441v-227h-105z" glyph-name="logicalnot" horiz-adv-x="519" unicode="¬"/>
<glyph d="M30 336h259v-94h-259v94z" glyph-name="uni00AD" horiz-adv-x="319" unicode="­"/>
<glyph d="M20 501q0 53 20.5 100t55.5 82t81.5 55.5t99.5 20.5t100 -20.5t82 -55.5t55.5 -82t20.5 -100t-20.5 -100t-55.5 -82t-82 -55.5t-100 -20.5t-99.5 20.5t-81.5 55.5t-55.5 82t-20.5 100zM86 501q0 -39 15 -74t41 -61t61 -41t74 -15q40 0 74.5 15t60.5 41t41 61t15 74 t-15 74t-41 61t-60.5 41t-74.5 15q-39 0 -74 -15t-61 -41t-41 -61t-15 -74zM173 374v261h109q27 0 46 -7t31 -18.5t17.5 -26t5.5 -29.5q0 -29 -14 -48t-38 -29l65 -103h-69l-56 93h-37v-93h-60zM270 518q26 0 38 7.5t12 27.5q0 31 -45 31h-42v-66h37z" glyph-name="registered" horiz-adv-x="558" unicode="®"/>
<glyph d="M62 679h277v-94h-277v94z" glyph-name="macron" horiz-adv-x="402" unicode="¯"/>
<glyph d="M16 559q0 29 11 54.5t29.5 44t43.5 29t54 10.5q28 0 53.5 -10.5t44 -29t29.5 -44t11 -54.5t-11 -54.5t-29.5 -44t-44 -29t-53.5 -10.5q-29 0 -54 10.5t-43.5 29t-29.5 44t-11 54.5zM96 559q0 -26 16.5 -43t41.5 -17q24 0 40.5 17t16.5 43q0 25 -16.5 42t-40.5 17 q-25 0 -41.5 -17t-16.5 -42z" glyph-name="degree" horiz-adv-x="308" unicode="°"/>
<glyph d="M57 440h148v149h93v-149h148v-92h-148v-115h-93v115h-148v92zM57 207h389v-93h-389v93z" glyph-name="plusminus" horiz-adv-x="503" unicode="±"/>
<glyph d="M255 374h-221v57l105 95q19 17 28.5 31.5t9.5 31.5q0 18 -10.5 28t-25.5 10q-17 0 -28 -10.5t-13 -28.5h-69q0 25 9 44.5t24.5 33t35.5 20.5t42 7q49 0 78.5 -25.5t29.5 -73.5q0 -32 -16.5 -57t-42.5 -48l-60 -55h124v-60z" glyph-name="twosuperior" horiz-adv-x="278" unicode="²"/>
<glyph d="M114 564h16q23 0 35.5 9t12.5 27q0 15 -10 23t-25 8q-18 0 -28 -9t-12 -23h-71q0 21 8.5 38.5t23.5 29.5t35.5 19t44.5 7q48 0 76 -22.5t28 -64.5q0 -27 -14 -43.5t-33 -24.5q24 -8 38.5 -27t14.5 -45q0 -48 -31 -71.5t-79 -23.5q-54 0 -84 28t-32 68h72 q2 -14 12.5 -23.5t30.5 -9.5q16 0 27.5 8.5t11.5 28.5q0 17 -11.5 27.5t-40.5 10.5h-16v55z" glyph-name="threesuperior" horiz-adv-x="301" unicode="³"/>
<glyph d="M166 725h122l-91 -158h-101z" glyph-name="acute" horiz-adv-x="384" unicode="´"/>
<glyph d="M540 -190h-112v779h-81v-779h-112v500q-39 0 -74 15t-60.5 40.5t-40.5 60.5t-15 74t15 74t40.5 60.5t60.5 40.5t74 15h305v-880z" glyph-name="paragraph" horiz-adv-x="628" unicode="¶"/>
<glyph d="M171 285h-126v126h126v-126z" glyph-name="periodcentered" horiz-adv-x="216" unicode="·"/>
<glyph d="M137 25l71 -3l-12 -44q26 -10 41 -28t15 -46q0 -41 -32.5 -62t-82.5 -21q-14 0 -25 0.5t-17 2.5l14 59q5 -1 9 -1h10q15 0 27 5t12 19t-14.5 18.5t-34.5 4.5z" glyph-name="cedilla" horiz-adv-x="347" unicode="¸"/>
<glyph d="M200 374h-73v237l-57 -39v75l61 43h69v-316z" glyph-name="onesuperior" horiz-adv-x="277" unicode="¹"/>
<glyph d="M305 510q0 -63 -35 -101t-102 -38q-62 0 -99 36t-37 103v45q0 69 38 103.5t98 34.5q62 0 99.5 -34.5t37.5 -103.5v-45zM168 437q30 0 47 19t17 54v44q0 38 -17.5 55t-46.5 17t-46 -17t-17 -55v-44q0 -73 63 -73z" glyph-name="ordmasculine" horiz-adv-x="344" unicode="º"/>
<glyph d="M489 283l-232 -231v124l107 107l-107 106v125zM279 283l-232 -231v124l108 107l-108 106v125z" glyph-name="guillemotright" horiz-adv-x="519" unicode="»"/>
<glyph d="M191 374h-73v237l-57 -39v75l61 43h69v-316zM534 317l-123 -201h67v50h72v-50h39v-62h-39v-53h-72v53h-160v55l131 208h85zM592 690l-474 -690h-107l475 690h106z" glyph-name="onequarter" horiz-adv-x="634" unicode="¼"/>
<glyph d="M191 374h-73v237l-57 -39v75l61 43h69v-316zM590 1h-221v57l105 95q19 17 28.5 31.5t9.5 31.5q0 18 -10.5 28t-25.5 10q-17 0 -28 -10.5t-13 -28.5h-69q0 25 9 44.5t24.5 33t35.5 20.5t42 7q49 0 78.5 -25.5t29.5 -73.5q0 -32 -16.5 -57t-42.5 -48l-60 -55h124v-60z M592 690l-474 -690h-107l475 690h106z" glyph-name="onehalf" horiz-adv-x="630" unicode="½"/>
<glyph d="M104 564h16q23 0 35.5 9t12.5 27q0 15 -10 23t-25 8q-18 0 -28 -9t-12 -23h-71q0 21 8.5 38.5t23.5 29.5t35.5 19t44.5 7q48 0 76 -22.5t28 -64.5q0 -27 -14 -43.5t-33 -24.5q24 -8 38.5 -27t14.5 -45q0 -48 -31 -71.5t-79 -23.5q-54 0 -84 28t-32 68h72 q2 -14 12.5 -23.5t30.5 -9.5q16 0 27.5 8.5t11.5 28.5q0 17 -11.5 27.5t-40.5 10.5h-16v55zM534 317l-123 -201h67v50h72v-50h39v-62h-39v-53h-72v53h-160v55l131 208h85zM592 690l-474 -690h-107l475 690h106z" glyph-name="threequarters" horiz-adv-x="619" unicode="¾"/>
<glyph d="M310 311v-72q0 -28 -6.5 -47t-27.5 -39l-47 -43q-34 -32 -52 -58t-18 -63q0 -43 27.5 -65.5t64.5 -22.5q38 0 65.5 21.5t28.5 63.5h111q0 -45 -16.5 -79.5t-44 -58t-65 -35.5t-79.5 -12t-80 12.5t-66.5 36.5t-45 59.5t-16.5 82.5q0 30 8.5 56t22.5 49t32.5 43t38.5 39 l31 30q16 15 24 28.5t8 39.5v34h102zM200 500h118v-118h-118v118z" glyph-name="questiondown" horiz-adv-x="486" unicode="¿"/>
<glyph d="M2 0l240 690h110l240 -690h-123l-47 143h-249l-47 -143h-124zM205 243h184l-92 279zM344 744h-104l-103 129h127z" glyph-name="Agrave" horiz-adv-x="595" unicode="À"/>
<glyph d="M2 0l240 690h110l240 -690h-123l-47 143h-249l-47 -143h-124zM205 243h184l-92 279zM329 873h126l-103 -129h-103z" glyph-name="Aacute" horiz-adv-x="595" unicode="Á"/>
<glyph d="M2 0l240 690h110l240 -690h-123l-47 143h-249l-47 -143h-124zM205 243h184l-92 279zM347 880l138 -142h-117l-71 75l-71 -75h-117l138 142h100z" glyph-name="Acircumflex" horiz-adv-x="595" unicode="Â"/>
<glyph d="M2 0l240 690h110l240 -690h-123l-47 143h-249l-47 -143h-124zM205 243h184l-92 279zM358 744q-18 0 -33 4.5t-29 9.5t-27.5 9.5t-27.5 4.5q-31 0 -55 -26l-59 60q22 26 51.5 41t61.5 15q16 0 31 -4.5t29 -9.5t27.5 -9.5t28.5 -4.5q30 0 54 26l58 -60q-21 -26 -50 -41 t-60 -15z" glyph-name="Atilde" horiz-adv-x="595" unicode="Ã"/>
<glyph d="M2 0l240 690h110l240 -690h-123l-47 143h-249l-47 -143h-124zM205 243h184l-92 279zM140 869h108v-105h-108v105zM346 869h109v-105h-109v105z" glyph-name="Adieresis" horiz-adv-x="595" unicode="Ä"/>
<glyph d="M2 0l228 655q-22 13 -34 33.5t-12 48.5q0 46 32.5 72.5t80.5 26.5q49 0 81.5 -26.5t32.5 -72.5q0 -28 -13 -48.5t-34 -33.5l228 -655h-123l-47 143h-249l-47 -143h-124zM205 243h184l-92 279zM251 737q0 -19 13 -28.5t33 -9.5t33 9.5t13 28.5q0 20 -13 29t-33 9t-33 -9 t-13 -29z" glyph-name="Aring" horiz-adv-x="595" unicode="Å"/>
<glyph d="M2 0l391 690h450v-101h-307v-182h277v-100h-277v-207h307v-100h-423v147h-202l-82 -147h-134zM420 247v263l-147 -263h147z" glyph-name="AE" horiz-adv-x="878" unicode="Æ"/>
<glyph d="M276 -8q-51 4 -93 24.5t-72 58t-46.5 94t-16.5 132.5v88q0 81 18.5 140t52.5 96.5t81.5 55.5t105.5 18q103 0 168.5 -55t82.5 -168h-112q-14 63 -48 92.5t-91 29.5q-69 0 -105.5 -48.5t-36.5 -160.5v-88q0 -111 36.5 -160t105.5 -49q60 0 92.5 29.5t46.5 92.5h111 q-16 -106 -70 -159t-140 -62l-4 -15q26 -10 41 -28t15 -46q0 -41 -32.5 -62t-82.5 -21q-14 0 -25 0.5t-17 2.5l14 59q5 -1 9 -1h10q15 0 27 5t12 19t-14.5 18.5t-34.5 4.5z" glyph-name="Ccedilla" horiz-adv-x="587" unicode="Ç"/>
<glyph d="M499 690v-101h-307v-182h277v-100h-277v-207h307v-100h-423v690h423zM362 744h-104l-103 129h127z" glyph-name="Egrave" horiz-adv-x="533" unicode="È"/>
<glyph d="M499 690v-101h-307v-182h277v-100h-277v-207h307v-100h-423v690h423zM301 873h126l-103 -129h-103z" glyph-name="Eacute" horiz-adv-x="533" unicode="É"/>
<glyph d="M499 690v-101h-307v-182h277v-100h-277v-207h307v-100h-423v690h423zM337 880l138 -142h-117l-71 75l-71 -75h-117l138 142h100z" glyph-name="Ecircumflex" horiz-adv-x="533" unicode="Ê"/>
<glyph d="M499 690v-101h-307v-182h277v-100h-277v-207h307v-100h-423v690h423zM130 869h108v-105h-108v105zM336 869h109v-105h-109v105z" glyph-name="Edieresis" horiz-adv-x="533" unicode="Ë"/>
<glyph d="M202 0h-116v690h116v-690zM204 744h-104l-103 129h127z" glyph-name="Igrave" horiz-adv-x="287" unicode="Ì"/>
<glyph d="M202 0h-116v690h116v-690zM167 873h126l-103 -129h-103z" glyph-name="Iacute" horiz-adv-x="287" unicode="Í"/>
<glyph d="M202 0h-116v690h116v-690zM195 880l138 -142h-117l-71 75l-71 -75h-117l138 142h100z" glyph-name="Icircumflex" horiz-adv-x="287" unicode="Î"/>
<glyph d="M202 0h-116v690h116v-690zM-13 869h108v-105h-108v105zM193 869h109v-105h-109v105z" glyph-name="Idieresis" horiz-adv-x="287" unicode="Ï"/>
<glyph d="M80 0v307h-90v100h90v283h233q58 0 106 -16.5t82 -52.5t52.5 -94t18.5 -141v-82q0 -83 -18.5 -141t-52.5 -94t-82 -52.5t-106 -16.5h-233zM313 100q75 0 109 48.5t34 155.5v82q0 107 -34 155t-109 48h-117v-182h155v-100h-155v-207h117z" glyph-name="Eth" horiz-adv-x="620" unicode="Ð"/>
<glyph d="M572 690v-690h-103l-281 469v-469h-112v690h100l284 -475v475h112zM384 744q-18 0 -33 4.5t-29 9.5t-27.5 9.5t-27.5 4.5q-31 0 -55 -26l-59 60q22 26 51.5 41t61.5 15q16 0 31 -4.5t29 -9.5t27.5 -9.5t28.5 -4.5q30 0 54 26l58 -60q-21 -26 -50 -41t-60 -15z" glyph-name="Ntilde" horiz-adv-x="648" unicode="Ñ"/>
<glyph d="M565 301q0 -81 -18.5 -140t-52.5 -96.5t-82 -55.5t-106 -18t-105.5 18t-81.5 55.5t-52.5 96.5t-18.5 140v88q0 81 18.5 140t52.5 96.5t81.5 55.5t105.5 18t106 -18t82 -55.5t52.5 -96.5t18.5 -140v-88zM164 301q0 -112 36.5 -160.5t105.5 -48.5t106 48.5t37 160.5v88 q0 112 -37 160.5t-106 48.5t-105.5 -48.5t-36.5 -160.5v-88zM378 744h-104l-103 129h127z" glyph-name="Ograve" horiz-adv-x="613" unicode="Ò"/>
<glyph d="M565 301q0 -81 -18.5 -140t-52.5 -96.5t-82 -55.5t-106 -18t-105.5 18t-81.5 55.5t-52.5 96.5t-18.5 140v88q0 81 18.5 140t52.5 96.5t81.5 55.5t105.5 18t106 -18t82 -55.5t52.5 -96.5t18.5 -140v-88zM164 301q0 -112 36.5 -160.5t105.5 -48.5t106 48.5t37 160.5v88 q0 112 -37 160.5t-106 48.5t-105.5 -48.5t-36.5 -160.5v-88zM313 873h126l-103 -129h-103z" glyph-name="Oacute" horiz-adv-x="613" unicode="Ó"/>
<glyph d="M565 301q0 -81 -18.5 -140t-52.5 -96.5t-82 -55.5t-106 -18t-105.5 18t-81.5 55.5t-52.5 96.5t-18.5 140v88q0 81 18.5 140t52.5 96.5t81.5 55.5t105.5 18t106 -18t82 -55.5t52.5 -96.5t18.5 -140v-88zM164 301q0 -112 36.5 -160.5t105.5 -48.5t106 48.5t37 160.5v88 q0 112 -37 160.5t-106 48.5t-105.5 -48.5t-36.5 -160.5v-88zM356 880l138 -142h-117l-71 75l-71 -75h-117l138 142h100z" glyph-name="Ocircumflex" horiz-adv-x="613" unicode="Ô"/>
<glyph d="M565 301q0 -81 -18.5 -140t-52.5 -96.5t-82 -55.5t-106 -18t-105.5 18t-81.5 55.5t-52.5 96.5t-18.5 140v88q0 81 18.5 140t52.5 96.5t81.5 55.5t105.5 18t106 -18t82 -55.5t52.5 -96.5t18.5 -140v-88zM164 301q0 -112 36.5 -160.5t105.5 -48.5t106 48.5t37 160.5v88 q0 112 -37 160.5t-106 48.5t-105.5 -48.5t-36.5 -160.5v-88zM366 744q-18 0 -33 4.5t-29 9.5t-27.5 9.5t-27.5 4.5q-31 0 -55 -26l-59 60q22 26 51.5 41t61.5 15q16 0 31 -4.5t29 -9.5t27.5 -9.5t28.5 -4.5q30 0 54 26l58 -60q-21 -26 -50 -41t-60 -15z" glyph-name="Otilde" horiz-adv-x="613" unicode="Õ"/>
<glyph d="M565 301q0 -81 -18.5 -140t-52.5 -96.5t-82 -55.5t-106 -18t-105.5 18t-81.5 55.5t-52.5 96.5t-18.5 140v88q0 81 18.5 140t52.5 96.5t81.5 55.5t105.5 18t106 -18t82 -55.5t52.5 -96.5t18.5 -140v-88zM164 301q0 -112 36.5 -160.5t105.5 -48.5t106 48.5t37 160.5v88 q0 112 -37 160.5t-106 48.5t-105.5 -48.5t-36.5 -160.5v-88zM149 869h108v-105h-108v105zM355 869h109v-105h-109v105z" glyph-name="Odieresis" horiz-adv-x="613" unicode="Ö"/>
<glyph d="M83 233l121 121l-121 122l65 65l122 -122l122 122l65 -65l-122 -122l122 -121l-66 -66l-121 121l-121 -121z" glyph-name="multiply" horiz-adv-x="535" unicode="×"/>
<glyph d="M94 -116l55 153q-48 35 -74.5 100t-26.5 164v88q0 81 18.5 140t52.5 96.5t81.5 55.5t105.5 18q21 0 41 -2.5t38 -7.5l45 123h98l-59 -164q45 -36 70.5 -99.5t25.5 -159.5v-88q0 -81 -18.5 -140t-52.5 -96.5t-82 -55.5t-106 -18q-20 0 -38 2t-35 6l-41 -115h-98zM164 301 q0 -97 28 -147l158 438q-20 6 -44 6q-69 0 -105.5 -48.5t-36.5 -160.5v-88zM449 389q0 88 -24 138l-157 -431q16 -4 38 -4q69 0 106 48.5t37 160.5v88z" glyph-name="Oslash" horiz-adv-x="613" unicode="Ø"/>
<glyph d="M592 690v-410q0 -77 -19 -131.5t-53 -89.5t-81.5 -51.5t-104.5 -16.5t-104.5 16.5t-81.5 51.5t-53 89.5t-19 130.5v411h116v-411q0 -99 35.5 -143t106.5 -44t106.5 44t35.5 143v411h116zM402 744h-104l-103 129h127z" glyph-name="Ugrave" horiz-adv-x="668" unicode="Ù"/>
<glyph d="M592 690v-410q0 -77 -19 -131.5t-53 -89.5t-81.5 -51.5t-104.5 -16.5t-104.5 16.5t-81.5 51.5t-53 89.5t-19 130.5v411h116v-411q0 -99 35.5 -143t106.5 -44t106.5 44t35.5 143v411h116zM345 873h126l-103 -129h-103z" glyph-name="Uacute" horiz-adv-x="668" unicode="Ú"/>
<glyph d="M592 690v-410q0 -77 -19 -131.5t-53 -89.5t-81.5 -51.5t-104.5 -16.5t-104.5 16.5t-81.5 51.5t-53 89.5t-19 130.5v411h116v-411q0 -99 35.5 -143t106.5 -44t106.5 44t35.5 143v411h116zM384 880l138 -142h-117l-71 75l-71 -75h-117l138 142h100z" glyph-name="Ucircumflex" horiz-adv-x="668" unicode="Û"/>
<glyph d="M592 690v-410q0 -77 -19 -131.5t-53 -89.5t-81.5 -51.5t-104.5 -16.5t-104.5 16.5t-81.5 51.5t-53 89.5t-19 130.5v411h116v-411q0 -99 35.5 -143t106.5 -44t106.5 44t35.5 143v411h116zM177 869h108v-105h-108v105zM383 869h109v-105h-109v105z" glyph-name="Udieresis" horiz-adv-x="668" unicode="Ü"/>
<glyph d="M147 690l138 -276l139 276h134l-215 -402v-288h-116v288l-215 402h135zM305 873h126l-103 -129h-103z" glyph-name="Yacute" horiz-adv-x="571" unicode="Ý"/>
<glyph d="M192 139v-139h-116v690h116v-113h119q120 0 187 -55.5t67 -161.5t-66.5 -163.5t-187.5 -57.5h-119zM299 240q80 0 115 30t35 90q0 56 -35 86.5t-115 30.5h-107v-237h107z" glyph-name="Thorn" horiz-adv-x="589" unicode="Þ"/>
<glyph d="M462 564q0 -32 -14 -56.5t-47 -40.5q38 -14 49.5 -42t11.5 -73v-212q0 -45 -8.5 -72.5t-26.5 -42.5t-46 -20t-66 -5h-53v91h36q32 0 45 14t13 47v198q0 35 -11.5 51t-46.5 16h-36v87h36q58 0 58 52q0 23 -19.5 39.5t-67.5 16.5q-55 0 -80 -29t-25 -92v-491h-107v499 q0 97 51 148.5t161 51.5q54 0 90.5 -11.5t59.5 -30.5t33 -43.5t10 -49.5z" glyph-name="germandbls" horiz-adv-x="519" unicode="ß"/>
<glyph d="M32 147q0 40 14 68t39 46t59 26t74 8h108v42q0 47 -21.5 63.5t-77.5 16.5q-20 0 -35.5 -1.5t-28 -6.5t-22.5 -13.5t-19 -23.5l-77 54q27 44 71 63.5t118 19.5q48 0 85 -8.5t61.5 -28.5t37.5 -53t13 -83v-336h-105v46q-18 -29 -44 -42t-72 -13q-83 0 -130.5 40.5 t-47.5 115.5zM326 213h-100q-48 0 -68.5 -16.5t-20.5 -49.5q0 -35 23.5 -50t61.5 -15q24 0 43.5 4.5t33 16.5t20.5 32.5t7 53.5v24zM314 567h-101l-91 158h122z" glyph-name="agrave" horiz-adv-x="488" unicode="à"/>
<glyph d="M32 147q0 40 14 68t39 46t59 26t74 8h108v42q0 47 -21.5 63.5t-77.5 16.5q-20 0 -35.5 -1.5t-28 -6.5t-22.5 -13.5t-19 -23.5l-77 54q27 44 71 63.5t118 19.5q48 0 85 -8.5t61.5 -28.5t37.5 -53t13 -83v-336h-105v46q-18 -29 -44 -42t-72 -13q-83 0 -130.5 40.5 t-47.5 115.5zM326 213h-100q-48 0 -68.5 -16.5t-20.5 -49.5q0 -35 23.5 -50t61.5 -15q24 0 43.5 4.5t33 16.5t20.5 32.5t7 53.5v24zM249 725h122l-91 -158h-101z" glyph-name="aacute" horiz-adv-x="488" unicode="á"/>
<glyph d="M32 147q0 40 14 68t39 46t59 26t74 8h108v42q0 47 -21.5 63.5t-77.5 16.5q-20 0 -35.5 -1.5t-28 -6.5t-22.5 -13.5t-19 -23.5l-77 54q27 44 71 63.5t118 19.5q48 0 85 -8.5t61.5 -28.5t37.5 -53t13 -83v-336h-105v46q-18 -29 -44 -42t-72 -13q-83 0 -130.5 40.5 t-47.5 115.5zM326 213h-100q-48 0 -68.5 -16.5t-20.5 -49.5q0 -35 23.5 -50t61.5 -15q24 0 43.5 4.5t33 16.5t20.5 32.5t7 53.5v24zM294 700l108 -142h-102l-56 77l-56 -77h-102l108 142h100z" glyph-name="acircumflex" horiz-adv-x="488" unicode="â"/>
<glyph d="M32 147q0 40 14 68t39 46t59 26t74 8h108v42q0 47 -21.5 63.5t-77.5 16.5q-20 0 -35.5 -1.5t-28 -6.5t-22.5 -13.5t-19 -23.5l-77 54q27 44 71 63.5t118 19.5q48 0 85 -8.5t61.5 -28.5t37.5 -53t13 -83v-336h-105v46q-18 -29 -44 -42t-72 -13q-83 0 -130.5 40.5 t-47.5 115.5zM326 213h-100q-48 0 -68.5 -16.5t-20.5 -49.5q0 -35 23.5 -50t61.5 -15q24 0 43.5 4.5t33 16.5t20.5 32.5t7 53.5v24zM307 572q-18 0 -33 4.5t-29 9.5t-27 9.5t-27 4.5q-31 0 -56 -27l-58 59q21 26 50.5 41t61.5 15q17 0 31.5 -4.5t28.5 -10t28 -10t29 -4.5 q28 0 53 27l58 -58q-20 -26 -49 -41t-61 -15z" glyph-name="atilde" horiz-adv-x="488" unicode="ã"/>
<glyph d="M32 147q0 40 14 68t39 46t59 26t74 8h108v42q0 47 -21.5 63.5t-77.5 16.5q-20 0 -35.5 -1.5t-28 -6.5t-22.5 -13.5t-19 -23.5l-77 54q27 44 71 63.5t118 19.5q48 0 85 -8.5t61.5 -28.5t37.5 -53t13 -83v-336h-105v46q-18 -29 -44 -42t-72 -13q-83 0 -130.5 40.5 t-47.5 115.5zM326 213h-100q-48 0 -68.5 -16.5t-20.5 -49.5q0 -35 23.5 -50t61.5 -15q24 0 43.5 4.5t33 16.5t20.5 32.5t7 53.5v24zM79 690h109v-105h-109v105zM286 690h108v-105h-108v105z" glyph-name="adieresis" horiz-adv-x="488" unicode="ä"/>
<glyph d="M32 147q0 40 14 68t39 46t59 26t74 8h108v42q0 47 -21.5 63.5t-77.5 16.5q-20 0 -35.5 -1.5t-28 -6.5t-22.5 -13.5t-19 -23.5l-77 54q27 44 71 63.5t118 19.5q48 0 85 -8.5t61.5 -28.5t37.5 -53t13 -83v-336h-105v46q-18 -29 -44 -42t-72 -13q-83 0 -130.5 40.5 t-47.5 115.5zM326 213h-100q-48 0 -68.5 -16.5t-20.5 -49.5q0 -35 23.5 -50t61.5 -15q24 0 43.5 4.5t33 16.5t20.5 32.5t7 53.5v24zM128 646q0 23 8.5 43t24.5 35t37 23.5t47 8.5q25 0 46.5 -8.5t37.5 -23.5t24.5 -35t8.5 -43t-8.5 -43t-24.5 -34.5t-37.5 -23t-46.5 -8.5 q-26 0 -47 8.5t-37 23t-24.5 34.5t-8.5 43zM199 646q0 -22 13 -36t33 -14t33 14t13 36q0 23 -13 36t-33 13t-33 -13t-13 -36z" glyph-name="aring" horiz-adv-x="488" unicode="å"/>
<glyph d="M722 76q-26 -46 -69.5 -65.5t-109.5 -19.5q-60 0 -101 20.5t-65 58.5q-52 -79 -167 -79q-85 0 -131.5 40.5t-46.5 113.5q0 41 14 69.5t39.5 46.5t59.5 26t75 8h106v40q0 46 -20 64t-77 18q-44 0 -67.5 -9t-39.5 -36l-77 52q51 85 191 85q111 0 153 -57q23 27 56.5 42 t81.5 15q95 0 147.5 -54t55.5 -166v-67h-299v-2q0 -66 28 -101.5t82 -35.5q42 0 64 12t37 37zM326 213h-100q-47 0 -68 -17t-21 -49q0 -36 23.5 -50.5t61.5 -14.5q23 0 42.5 4t33 16t21 33t7.5 54v24zM528 416q-47 0 -70 -29t-27 -83h191q-2 53 -24 82.5t-70 29.5z" glyph-name="ae" horiz-adv-x="775" unicode="æ"/>
<glyph d="M220 -7q-89 11 -136.5 70.5t-47.5 153.5v68q0 109 58 166.5t166 57.5q57 0 102.5 -20.5t71.5 -60.5l-82 -57q-14 20 -38 32.5t-56 12.5q-59 0 -87.5 -35.5t-28.5 -100.5v-58q0 -29 5.5 -54.5t19 -44.5t36 -29.5t55.5 -10.5q32 0 56.5 11.5t38.5 37.5l81 -56 q-22 -38 -57.5 -58t-86.5 -25l-4 -15q26 -10 41 -28t15 -46q0 -41 -32.5 -62t-82.5 -21q-14 0 -25 0.5t-17 2.5l14 59q5 -1 9 -1h10q15 0 27 5t12 19t-14.5 18.5t-34.5 4.5z" glyph-name="ccedilla" horiz-adv-x="445" unicode="ç"/>
<glyph d="M434 76q-26 -46 -69.5 -65.5t-109.5 -19.5q-54 0 -94.5 16.5t-68.5 46.5t-42 71.5t-14 91.5v68q0 111 52 167.5t151 56.5q103 0 152.5 -59t49.5 -171v-55h-299v-2q0 -29 6 -54.5t19 -44.5t33.5 -29.5t50.5 -10.5q44 0 66 13t37 36zM239 416q-47 0 -69.5 -29.5 t-26.5 -80.5h191q-6 110 -95 110zM314 567h-101l-91 158h122z" glyph-name="egrave" horiz-adv-x="487" unicode="è"/>
<glyph d="M434 76q-26 -46 -69.5 -65.5t-109.5 -19.5q-54 0 -94.5 16.5t-68.5 46.5t-42 71.5t-14 91.5v68q0 111 52 167.5t151 56.5q103 0 152.5 -59t49.5 -171v-55h-299v-2q0 -29 6 -54.5t19 -44.5t33.5 -29.5t50.5 -10.5q44 0 66 13t37 36zM239 416q-47 0 -69.5 -29.5 t-26.5 -80.5h191q-6 110 -95 110zM245 725h122l-91 -158h-101z" glyph-name="eacute" horiz-adv-x="487" unicode="é"/>
<glyph d="M434 76q-26 -46 -69.5 -65.5t-109.5 -19.5q-54 0 -94.5 16.5t-68.5 46.5t-42 71.5t-14 91.5v68q0 111 52 167.5t151 56.5q103 0 152.5 -59t49.5 -171v-55h-299v-2q0 -29 6 -54.5t19 -44.5t33.5 -29.5t50.5 -10.5q44 0 66 13t37 36zM239 416q-47 0 -69.5 -29.5 t-26.5 -80.5h191q-6 110 -95 110zM289 700l108 -142h-102l-56 77l-56 -77h-102l108 142h100z" glyph-name="ecircumflex" horiz-adv-x="487" unicode="ê"/>
<glyph d="M434 76q-26 -46 -69.5 -65.5t-109.5 -19.5q-54 0 -94.5 16.5t-68.5 46.5t-42 71.5t-14 91.5v68q0 111 52 167.5t151 56.5q103 0 152.5 -59t49.5 -171v-55h-299v-2q0 -29 6 -54.5t19 -44.5t33.5 -29.5t50.5 -10.5q44 0 66 13t37 36zM239 416q-47 0 -69.5 -29.5 t-26.5 -80.5h191q-6 110 -95 110zM81 690h109v-105h-109v105zM288 690h108v-105h-108v105z" glyph-name="edieresis" horiz-adv-x="487" unicode="ë"/>
<glyph d="M72 500h107v-500h-107v500zM175 567h-101l-91 158h122z" glyph-name="igrave" horiz-adv-x="251" unicode="ì"/>
<glyph d="M72 500h107v-500h-107v500zM139 725h122l-91 -158h-101z" glyph-name="iacute" horiz-adv-x="251" unicode="í"/>
<glyph d="M72 500h107v-500h-107v500zM172 700l108 -142h-102l-56 77l-56 -77h-102l108 142h100z" glyph-name="icircumflex" horiz-adv-x="251" unicode="î"/>
<glyph d="M72 500h107v-500h-107v500zM-36 690h109v-105h-109v105zM171 690h108v-105h-108v105z" glyph-name="idieresis" horiz-adv-x="251" unicode="ï"/>
<glyph d="M194 610l-55 22l41 76l55 -23l31 55l67 -38l-27 -49q43 -21 72.5 -43t48 -51.5t26.5 -70t8 -98.5v-171q0 -50 -12.5 -92t-38.5 -72t-66 -47t-95 -17q-53 0 -92.5 16t-66.5 46t-40.5 72t-13.5 94v63q0 111 55 169t155 58q35 0 66 -10t53 -31q-6 40 -27.5 64t-71.5 47 l-29 -52l-69 37zM249 83q28 0 48.5 10.5t33 29.5t18.5 44.5t6 54.5v58q0 66 -26 101t-80 35t-80.5 -35.5t-26.5 -100.5v-58q0 -29 5.5 -54.5t18 -44.5t33 -29.5t50.5 -10.5z" glyph-name="eth" horiz-adv-x="501" unicode="ð"/>
<glyph d="M57 500h105v-45q17 23 45.5 38.5t78.5 15.5q39 0 72 -10.5t57.5 -33.5t38.5 -60.5t14 -91.5v-313h-106v301q0 33 -7 55t-20 34.5t-30 18t-38 5.5q-50 0 -76.5 -30.5t-26.5 -81.5v-302h-107v500zM323 572q-18 0 -33 4.5t-29 9.5t-27 9.5t-27 4.5q-31 0 -56 -27l-58 59 q21 26 50.5 41t61.5 15q17 0 31.5 -4.5t28.5 -10t28 -10t29 -4.5q28 0 53 27l58 -58q-20 -26 -49 -41t-61 -15z" glyph-name="ntilde" horiz-adv-x="526" unicode="ñ"/>
<glyph d="M461 219q0 -50 -12.5 -92t-38.5 -72t-66 -47t-95 -17q-53 0 -92.5 16t-66.5 46t-40.5 72t-13.5 94v63q0 111 55.5 169t157.5 58t157 -58t55 -169v-63zM249 83q28 0 48.5 10.5t33 29.5t18.5 44.5t6 54.5v58q0 66 -26 101t-80 35t-80.5 -35.5t-26.5 -100.5v-58 q0 -29 5.5 -54.5t18 -44.5t33 -29.5t50.5 -10.5zM322 567h-101l-91 158h122z" glyph-name="ograve" horiz-adv-x="497" unicode="ò"/>
<glyph d="M461 219q0 -50 -12.5 -92t-38.5 -72t-66 -47t-95 -17q-53 0 -92.5 16t-66.5 46t-40.5 72t-13.5 94v63q0 111 55.5 169t157.5 58t157 -58t55 -169v-63zM249 83q28 0 48.5 10.5t33 29.5t18.5 44.5t6 54.5v58q0 66 -26 101t-80 35t-80.5 -35.5t-26.5 -100.5v-58 q0 -29 5.5 -54.5t18 -44.5t33 -29.5t50.5 -10.5zM256 725h122l-91 -158h-101z" glyph-name="oacute" horiz-adv-x="497" unicode="ó"/>
<glyph d="M461 219q0 -50 -12.5 -92t-38.5 -72t-66 -47t-95 -17q-53 0 -92.5 16t-66.5 46t-40.5 72t-13.5 94v63q0 111 55.5 169t157.5 58t157 -58t55 -169v-63zM249 83q28 0 48.5 10.5t33 29.5t18.5 44.5t6 54.5v58q0 66 -26 101t-80 35t-80.5 -35.5t-26.5 -100.5v-58 q0 -29 5.5 -54.5t18 -44.5t33 -29.5t50.5 -10.5zM299 700l108 -142h-102l-56 77l-56 -77h-102l108 142h100z" glyph-name="ocircumflex" horiz-adv-x="497" unicode="ô"/>
<glyph d="M461 219q0 -50 -12.5 -92t-38.5 -72t-66 -47t-95 -17q-53 0 -92.5 16t-66.5 46t-40.5 72t-13.5 94v63q0 111 55.5 169t157.5 58t157 -58t55 -169v-63zM249 83q28 0 48.5 10.5t33 29.5t18.5 44.5t6 54.5v58q0 66 -26 101t-80 35t-80.5 -35.5t-26.5 -100.5v-58 q0 -29 5.5 -54.5t18 -44.5t33 -29.5t50.5 -10.5zM309 572q-18 0 -33 4.5t-29 9.5t-27 9.5t-27 4.5q-31 0 -56 -27l-58 59q21 26 50.5 41t61.5 15q17 0 31.5 -4.5t28.5 -10t28 -10t29 -4.5q28 0 53 27l58 -58q-20 -26 -49 -41t-61 -15z" glyph-name="otilde" horiz-adv-x="497" unicode="õ"/>
<glyph d="M461 219q0 -50 -12.5 -92t-38.5 -72t-66 -47t-95 -17q-53 0 -92.5 16t-66.5 46t-40.5 72t-13.5 94v63q0 111 55.5 169t157.5 58t157 -58t55 -169v-63zM249 83q28 0 48.5 10.5t33 29.5t18.5 44.5t6 54.5v58q0 66 -26 101t-80 35t-80.5 -35.5t-26.5 -100.5v-58 q0 -29 5.5 -54.5t18 -44.5t33 -29.5t50.5 -10.5zM91 690h109v-105h-109v105zM298 690h108v-105h-108v105z" glyph-name="odieresis" horiz-adv-x="497" unicode="ö"/>
<glyph d="M57 401h389v-94h-389v94zM197 571h107v-107h-107v107zM197 244h107v-106h-107v106z" glyph-name="divide" horiz-adv-x="503" unicode="÷"/>
<glyph d="M63 -79l50 111q-38 29 -57.5 76.5t-19.5 110.5v63q0 111 55.5 169t157.5 58q20 0 38 -2.5t35 -7.5l37 83h77l-51 -113q37 -29 56.5 -75.5t19.5 -111.5v-63q0 -50 -12.5 -92t-38.5 -72t-66 -47t-95 -17q-41 0 -74 9l-35 -79h-77zM142 222q0 -26 4 -48t13 -40l124 277 q-17 5 -34 5q-54 0 -80.5 -35.5t-26.5 -100.5v-58zM249 83q28 0 48.5 10.5t33 29.5t18.5 44.5t6 54.5v58q0 50 -17 84l-124 -277q13 -4 35 -4z" glyph-name="oslash" horiz-adv-x="497" unicode="ø"/>
<glyph d="M468 0h-105v45q-17 -27 -44 -40.5t-79 -13.5q-39 0 -72 10.5t-58 34t-39 61t-14 91.5v312h107v-301q0 -33 7 -55t20 -35t30.5 -18.5t38.5 -5.5q50 0 76 30.5t26 82.5v302h106v-500zM343 567h-101l-91 158h122z" glyph-name="ugrave" horiz-adv-x="526" unicode="ù"/>
<glyph d="M468 0h-105v45q-17 -27 -44 -40.5t-79 -13.5q-39 0 -72 10.5t-58 34t-39 61t-14 91.5v312h107v-301q0 -33 7 -55t20 -35t30.5 -18.5t38.5 -5.5q50 0 76 30.5t26 82.5v302h106v-500zM276 725h122l-91 -158h-101z" glyph-name="uacute" horiz-adv-x="526" unicode="ú"/>
<glyph d="M468 0h-105v45q-17 -27 -44 -40.5t-79 -13.5q-39 0 -72 10.5t-58 34t-39 61t-14 91.5v312h107v-301q0 -33 7 -55t20 -35t30.5 -18.5t38.5 -5.5q50 0 76 30.5t26 82.5v302h106v-500zM313 700l108 -142h-102l-56 77l-56 -77h-102l108 142h100z" glyph-name="ucircumflex" horiz-adv-x="526" unicode="û"/>
<glyph d="M468 0h-105v45q-17 -27 -44 -40.5t-79 -13.5q-39 0 -72 10.5t-58 34t-39 61t-14 91.5v312h107v-301q0 -33 7 -55t20 -35t30.5 -18.5t38.5 -5.5q50 0 76 30.5t26 82.5v302h106v-500zM105 690h109v-105h-109v105zM312 690h108v-105h-108v105z" glyph-name="udieresis" horiz-adv-x="526" unicode="ü"/>
<glyph d="M118 500l127 -352l114 352h110l-176 -520q-16 -48 -33 -80.5t-41 -52.5t-59 -28.5t-87 -8.5v98q26 0 45 3t33.5 12t25 26t19.5 45l-191 506h113zM260 725h122l-91 -158h-101z" glyph-name="yacute" horiz-adv-x="473" unicode="ý"/>
<glyph d="M482 217q0 -49 -12 -90.5t-36.5 -71.5t-61.5 -47t-87 -17q-44 0 -73 10.5t-48 30.5v-222h-107v880h107v-230q19 23 49 36t73 13q91 0 143.5 -58t52.5 -166v-68zM270 83q28 0 48.5 10.5t33 29.5t18.5 44.5t6 54.5v58q0 66 -26 101t-80 35q-53 0 -79 -34t-27 -96v-64 q0 -29 5 -54.5t17.5 -44.5t33 -29.5t50.5 -10.5z" glyph-name="thorn" horiz-adv-x="519" unicode="þ"/>
</font>
</defs>
</svg>
