<?xml version="1.0" encoding="UTF-8"?>
<!DOCTYPE svg  PUBLIC '-//W3C//DTD SVG 1.1//EN'  'http://www.w3.org/Graphics/SVG/1.1/DTD/svg11.dtd'>
<svg version="1.1" xmlns="http://www.w3.org/2000/svg">
<defs>
<font id="DIN2014-Bold" horiz-adv-x="540">
<font-face font-family="DIN 2014 Bold" font-weight="700" ascent="779" bbox="-41 -199 914 879" cap-height="690" descent="-221" panose-1="2 11 7 4 2 2 2 2 2 4" underline-position="-100" underline-thickness="50" unicode-range="U+0020-00FE" units-per-em="1000" x-height="500"/>
<missing-glyph/>
<glyph glyph-name="space" horiz-adv-x="250" unicode=" "/>
<glyph d="M188 189h-126v501h126v-501zM193 0h-136v136h136v-136z" glyph-name="exclam" horiz-adv-x="250" unicode="!"/>
<glyph d="M160 507h-120v183h120v-183zM322 507h-119v183h119v-183z" glyph-name="quotedbl" horiz-adv-x="362" unicode='"'/>
<glyph d="M156 501l35 189h128l-35 -189h96l35 189h128l-35 -189h79v-112h-100l-16 -85h79v-112h-100l-36 -192h-127l35 192h-96l-35 -192h-129l36 192h-84v112h105l16 85h-84v112h105zM247 304h96l16 85h-96z" glyph-name="numbersign" horiz-adv-x="615" unicode="#"/>
<glyph d="M410 508q-17 25 -36 41.5t-47 24.5v-174q50 -14 87 -31.5t61 -41.5t35.5 -56.5t11.5 -76.5q0 -77 -46 -132t-141 -68v-110h-116v111q-129 16 -201 112l107 75q20 -26 44 -43.5t57 -24.5v180q-95 28 -142 77t-47 132q0 36 10.5 68t33 57.5t57 43t81.5 23.5v117h116v-118 q119 -18 180 -111zM382 187q0 24 -12 42t-43 33v-146q29 9 42 28.5t13 42.5zM177 504q0 -47 49 -72v141q-49 -17 -49 -69z" glyph-name="dollar" unicode="$"/>
<glyph d="M633 690l-385 -690h-124l386 690h123zM739 141q0 -68 -35 -109t-116 -41q-74 0 -112 38.5t-38 111.5v59q0 73 39 110.5t111 37.5q74 0 112.5 -37t38.5 -111v-59zM588 78q48 0 48 63v56q0 35 -12 49t-36 14q-23 0 -34.5 -14.5t-11.5 -48.5v-56q0 -63 46 -63zM323 492 q0 -68 -35 -109t-117 -41q-73 0 -111 38.5t-38 111.5v59q0 73 38.5 110.5t110.5 37.5q75 0 113.5 -37t38.5 -111v-59zM172 429q48 0 48 63v56q0 35 -12 49t-36 14q-23 0 -34.5 -14.5t-11.5 -48.5v-56q0 -32 10.5 -47.5t35.5 -15.5z" glyph-name="percent" horiz-adv-x="759" unicode="%"/>
<glyph d="M35 183q0 34 9.5 62.5t25.5 53t37 45.5t44 39q-30 37 -48 75t-18 84q0 36 14 65t39.5 49.5t60 31.5t75.5 11q47 0 82 -11.5t58.5 -30.5t35 -43.5t11.5 -51.5q0 -29 -12 -54t-32.5 -48t-46 -43.5t-52.5 -40.5l132 -147q14 42 14 93h132q0 -109 -54 -195l115 -127h-161 l-38 41q-37 -24 -83 -37t-102 -13q-58 0 -102.5 16t-74.5 43t-45.5 61.5t-15.5 71.5zM279 109q57 0 97 23l-153 168q-23 -23 -37.5 -46.5t-14.5 -50.5q0 -43 29.5 -68.5t78.5 -25.5zM218 542q0 -22 10 -44.5t25 -43.5q35 24 58.5 47.5t23.5 52.5q0 19 -15 33.5t-44 14.5 q-25 0 -41.5 -14.5t-16.5 -45.5z" glyph-name="ampersand" horiz-adv-x="666" unicode="&amp;"/>
<glyph d="M160 507h-120v183h120v-183z" glyph-name="quotesingle" horiz-adv-x="200" unicode="'"/>
<glyph d="M237 -116q-53 33 -86.5 64t-53 63t-27 67t-7.5 77v386q0 42 7.5 76.5t27 66.5t53 63t86.5 65l70 -99q-32 -24 -54 -42.5t-36 -39.5t-20.5 -48.5t-6.5 -67.5v-334q0 -41 6.5 -68t20.5 -48t36 -39.5t54 -42.5z" glyph-name="parenleft" horiz-adv-x="317" unicode="("/>
<glyph d="M23 -17q31 24 53.5 42.5t36.5 39.5t20.5 48t6.5 68v334q0 40 -6.5 67.5t-20.5 48.5t-36.5 39.5t-53.5 42.5l70 99q53 -34 86.5 -65t53 -63t27 -66.5t7.5 -76.5v-386q0 -42 -7.5 -77t-27 -67t-53 -63t-86.5 -64z" glyph-name="parenright" horiz-adv-x="317" unicode=")"/>
<glyph d="M249 588l85 56l47 -82l-88 -46l89 -47l-48 -81l-85 54l5 -101h-95l4 100l-83 -54l-48 82l90 46l-89 47l46 82l84 -54l-4 100h95z" glyph-name="asterisk" horiz-adv-x="425" unicode="*"/>
<glyph d="M58 408h139v141h110v-141h140v-108h-140v-140h-110v140h-139v108z" glyph-name="plus" unicode="+"/>
<glyph d="M196 -46l-136 -116v318h136v-202z" glyph-name="comma" horiz-adv-x="256" unicode=","/>
<glyph d="M30 345h259v-112h-259v112z" glyph-name="hyphen" horiz-adv-x="319" unicode="-"/>
<glyph d="M216 0h-156v156h156v-156z" glyph-name="period" horiz-adv-x="276" unicode="."/>
<glyph d="M47 -116l336 928h115l-336 -928h-115z" glyph-name="slash" horiz-adv-x="485" unicode="/"/>
<glyph d="M502 211q0 -58 -19 -99.5t-50.5 -68.5t-74 -39.5t-88.5 -12.5q-47 0 -89 12.5t-73.5 39.5t-50.5 68.5t-19 99.5v268q0 61 19 103t50.5 68t73.5 37.5t89 11.5q46 0 88.5 -11.5t74 -37.5t50.5 -68t19 -102v-269zM362 467q0 56 -22.5 85t-69.5 29q-48 0 -70.5 -29t-22.5 -85 v-244q0 -56 22.5 -85t70.5 -29q47 0 69.5 29t22.5 85v244z" glyph-name="zero" unicode="0"/>
<glyph d="M364 0h-140v544l-99 -65v135l113 76h126v-690z" glyph-name="one" unicode="1"/>
<glyph d="M477 0h-426v90l231 272q32 38 48 70.5t16 66.5q0 42 -26 63t-60 21q-35 0 -59 -21t-27 -63h-124q0 45 17 81.5t46.5 63t69 41t84.5 14.5q46 0 86 -15t69.5 -42t46 -63.5t16.5 -79.5q0 -34 -10 -64.5t-25.5 -57t-34 -50t-34.5 -42.5l-142 -167h238v-118z" glyph-name="two" unicode="2"/>
<glyph d="M194 415h51q43 0 69.5 22t26.5 66q0 35 -24 57.5t-62 22.5q-37 0 -59 -21t-27 -53h-124q2 42 19.5 77t46.5 60t67.5 39t83.5 14q47 0 87 -15t69 -41t45.5 -60.5t16.5 -73.5q0 -29 -8 -53t-21.5 -42.5t-30.5 -32.5t-34 -23q45 -22 74.5 -62.5t29.5 -102.5q0 -42 -14.5 -79 t-42.5 -64t-69 -43t-94 -16q-55 0 -97.5 14.5t-72.5 40.5t-46 61.5t-18 77.5h123q5 -33 30 -54.5t72 -21.5q42 0 66 26.5t24 64.5q0 46 -26 71.5t-80 25.5h-51v118z" glyph-name="three" unicode="3"/>
<glyph d="M398 690l-215 -473h132v176h140v-176h63v-119h-63v-98h-140v98h-306v97l236 495h153z" glyph-name="four" unicode="4"/>
<glyph d="M272 355q-27 0 -44.5 -14t-28.5 -37h-126v386h393v-127h-256v-118q14 14 38.5 25t63.5 11q40 0 73 -15t57 -46t37 -77t13 -108q0 -123 -54.5 -183.5t-161.5 -60.5q-44 0 -82.5 12t-68.5 35.5t-49.5 58.5t-23.5 81h138q8 -33 28 -51t54 -18q38 0 59 29t21 90q0 63 -19 95 t-61 32z" glyph-name="five" unicode="5"/>
<glyph d="M246 406q16 8 32 10q16 3 35 3q40 0 74.5 -15.5t60 -43t40 -65t14.5 -82.5q0 -57 -18 -99t-49.5 -69.5t-73.5 -40.5t-90 -13t-90.5 13t-74 40t-50 69t-18.5 99q0 41 17 89t46 108l139 281h150zM178 207q0 -44 23 -71t70 -27q45 0 68 27t23 71q0 43 -23 70t-68 27 q-47 0 -70 -27t-23 -70z" glyph-name="six" unicode="6"/>
<glyph d="M66 464v226h422v-98l-199 -592h-145l200 571h-159v-107h-119z" glyph-name="seven" unicode="7"/>
<glyph d="M35 192q0 29 8.5 55t22.5 47.5t33 38t39 25.5q-42 21 -67.5 62t-25.5 90q0 46 18.5 81t50 59t72 36.5t84.5 12.5t85 -12.5t72 -36.5t49.5 -59t18.5 -81q0 -49 -25.5 -90t-67.5 -62q42 -19 72.5 -63t30.5 -103q0 -48 -18.5 -85.5t-51 -63t-75 -39t-90.5 -13.5t-90.5 13.5 t-75 39t-51 63t-18.5 85.5zM175 205q0 -40 26.5 -68.5t68.5 -28.5q20 0 37.5 7.5t30.5 21t20.5 31t7.5 37.5q0 22 -8.5 40t-22 30.5t-31 19t-34.5 6.5q-18 0 -35 -6.5t-30.5 -19t-21.5 -30.5t-8 -40zM184 496q0 -36 25 -61.5t61 -25.5q18 0 33.5 7t27 18.5t18.5 27.5t7 34 t-7 33.5t-18.5 27t-27 18t-33.5 6.5q-36 0 -61 -25t-25 -60z" glyph-name="eight" unicode="8"/>
<glyph d="M295 284q-17 -8 -33 -10.5t-34 -2.5q-40 0 -74.5 15.5t-60 43t-40.5 65t-15 82.5q0 57 18 99t49.5 69.5t74 40.5t90.5 13t90.5 -13t74 -40t50 -69t18.5 -99q0 -41 -17.5 -89t-46.5 -108l-139 -281h-150zM363 483q0 44 -23.5 71t-69.5 27q-45 0 -68.5 -27t-23.5 -71 q0 -43 23.5 -70t68.5 -27q46 0 69.5 27t23.5 70z" glyph-name="nine" unicode="9"/>
<glyph d="M196 363h-136v137h136v-137zM196 0h-136v136h136v-136z" glyph-name="colon" horiz-adv-x="246" unicode=":"/>
<glyph d="M196 -52l-136 -117v305h136v-188zM196 363h-136v137h136v-137z" glyph-name="semicolon" horiz-adv-x="246" unicode=";"/>
<glyph d="M245 342l181 -93v-144l-325 183v109l325 183v-144z" glyph-name="less" unicode="&lt;"/>
<glyph d="M76 479h389v-120h-389v120zM76 301h389v-119h-389v119z" glyph-name="equal" unicode="="/>
<glyph d="M112 436v144l325 -183v-109l-325 -183v144l181 93z" glyph-name="greater" unicode="&gt;"/>
<glyph d="M176 189v69q0 32 7.5 53.5t31.5 44.5l45 43q30 28 47 51.5t17 58.5t-22 54t-55 19q-31 0 -54 -17t-24 -51h-132q0 46 17 81t45.5 58t66.5 34.5t81 11.5q44 0 83.5 -11.5t69 -35t47 -59.5t17.5 -85q0 -60 -29 -104.5t-71 -85.5l-33 -32q-15 -15 -24.5 -28t-9.5 -38v-31 h-121zM305 0h-137v136h137v-136z" glyph-name="question" horiz-adv-x="487" unicode="?"/>
<glyph d="M640 241q0 -42 11.5 -58.5t34.5 -16.5q29 0 43.5 29.5t14.5 97.5q0 79 -24 133.5t-65 88t-94.5 48t-111.5 14.5q-81 0 -136.5 -27t-89 -70t-48.5 -96.5t-15 -107.5q0 -78 23 -134.5t63 -93.5t93.5 -54.5t114.5 -17.5q34 0 62.5 3t55 9.5t51.5 16t52 23.5l47 -91 q-35 -25 -103.5 -47t-169.5 -22q-80 0 -154.5 25.5t-133 76.5t-93.5 127.5t-35 178.5q0 99 34 175.5t91.5 128t133 78.5t157.5 27q90 0 167 -26t133.5 -76.5t89 -123.5t32.5 -167q0 -110 -46.5 -172t-135.5 -62q-45 0 -78.5 15t-54.5 50q-17 -32 -48.5 -48.5t-82.5 -16.5 q-81 0 -124.5 51t-43.5 139v52q0 48 12.5 83.5t35 59t53 35t67.5 11.5q28 0 49.5 -6t38.5 -17v18h127v-243zM446 166q37 0 52 19t15 61v50q0 48 -16 66.5t-51 18.5q-33 0 -47 -22t-14 -63v-38q0 -48 14 -70t47 -22z" glyph-name="at" horiz-adv-x="898" unicode="@"/>
<glyph d="M-4 0l240 690h134l240 -690h-149l-42 131h-231l-42 -131h-150zM225 249h156l-78 243z" glyph-name="A" horiz-adv-x="607" unicode="A"/>
<glyph d="M299 690q123 0 187.5 -44t64.5 -137q0 -54 -24.5 -90.5t-66.5 -56.5q54 -20 83.5 -59.5t29.5 -104.5q0 -40 -14 -76t-44 -63t-78 -43t-116 -16h-253v690h231zM208 118h101q124 0 124 91q0 49 -33 69.5t-104 20.5h-88v-181zM208 417h93q58 0 84 21t26 58q0 18 -5.5 32 t-19.5 24t-38 15t-62 5h-78v-155z" glyph-name="B" horiz-adv-x="606" unicode="B"/>
<glyph d="M430 476q-10 49 -39 77t-80 28q-61 0 -92.5 -44t-31.5 -143v-98q0 -97 31.5 -142t92.5 -45q53 0 80.5 26t38.5 79h133q-17 -117 -81 -170t-171 -53q-58 0 -106.5 18t-83.5 55.5t-54.5 95t-19.5 136.5v98q0 80 19.5 137.5t54.5 95t83.5 55t106.5 17.5q103 0 169.5 -54.5 t83.5 -168.5h-134z" glyph-name="C" horiz-adv-x="594" unicode="C"/>
<glyph d="M68 0v690h245q58 0 107 -16t84 -51.5t54.5 -93t19.5 -139.5v-90q0 -82 -19.5 -139t-54.5 -93t-84 -52t-107 -16h-245zM313 118q70 0 97.5 46t27.5 136v90q0 90 -27.5 135.5t-97.5 45.5h-105v-453h105z" glyph-name="D" horiz-adv-x="625" unicode="D"/>
<glyph d="M498 690v-119h-290v-155h260v-118h-260v-180h290v-118h-430v690h430z" glyph-name="E" horiz-adv-x="527" unicode="E"/>
<glyph d="M498 690v-119h-290v-171h260v-118h-260v-282h-140v690h430z" glyph-name="F" horiz-adv-x="521" unicode="F"/>
<glyph d="M565 359v-63q0 -79 -18 -136.5t-51 -95t-80 -55.5t-105 -18t-106.5 18t-83.5 55.5t-54.5 95t-19.5 136.5v88q0 84 19.5 143.5t54.5 97.5t83.5 56t106.5 18q109 0 173 -58.5t80 -164.5h-134q-9 48 -37.5 76.5t-81.5 28.5q-61 0 -92.5 -44t-31.5 -143v-98q0 -99 31.5 -143 t92.5 -44q59 0 86 35t33 97h-116v118h251z" glyph-name="G" horiz-adv-x="612" unicode="G"/>
<glyph d="M208 416h239v274h140v-690h-140v298h-239v-298h-140v690h140v-274z" glyph-name="H" horiz-adv-x="656" unicode="H"/>
<glyph d="M218 0h-140v690h140v-690z" glyph-name="I" horiz-adv-x="296" unicode="I"/>
<glyph d="M107 159q17 -23 41 -36.5t53 -13.5q25 0 44.5 7.5t32.5 25.5t19.5 48t6.5 75v425h140v-425q0 -75 -16 -127t-46.5 -84.5t-74 -47.5t-97.5 -15q-75 0 -129.5 26t-89.5 77z" glyph-name="J" horiz-adv-x="512" unicode="J"/>
<glyph d="M466 0l-176 291l-82 -108v-183h-140v690h140v-298l218 298h166l-211 -279l252 -411h-167z" glyph-name="K" horiz-adv-x="645" unicode="K"/>
<glyph d="M208 118h290v-118h-430v690h140v-572z" glyph-name="L" horiz-adv-x="504" unicode="L"/>
<glyph d="M393 314l192 376h133v-690h-134v428l-150 -304h-85l-148 301v-425h-133v690h131z" glyph-name="M" horiz-adv-x="786" unicode="M"/>
<glyph d="M587 690v-690h-117l-269 427v-427h-133v690h116l270 -433v433h133z" glyph-name="N" horiz-adv-x="656" unicode="N"/>
<glyph d="M576 296q0 -79 -19.5 -136.5t-54.5 -95t-84 -55.5t-107 -18t-106.5 18t-83.5 55.5t-54.5 95t-19.5 136.5v98q0 80 19.5 137.5t54.5 95t83.5 55t106.5 17.5t107 -17.5t84 -55t54.5 -95t19.5 -137.5v-98zM187 296q0 -99 31.5 -143t92.5 -44t93 44t32 143v98q0 99 -32 143 t-93 44t-92.5 -44t-31.5 -143v-98z" glyph-name="O" horiz-adv-x="623" unicode="O"/>
<glyph d="M208 243v-243h-140v690h247q119 0 188.5 -55t69.5 -166q0 -110 -68.5 -168t-189.5 -58h-107zM295 361q73 0 105.5 26t32.5 82q0 50 -32.5 76t-105.5 26h-87v-210h87z" glyph-name="P" horiz-adv-x="590" unicode="P"/>
<glyph d="M576 296q0 -51 -8 -91.5t-23 -73.5l96 -82l-74 -88l-93 79q-65 -49 -163 -49q-58 0 -106.5 18t-83.5 55.5t-54.5 95t-19.5 136.5v98q0 80 19.5 137.5t54.5 95t83.5 55t106.5 17.5t107 -17.5t84 -55t54.5 -95t19.5 -137.5v-98zM187 296q0 -99 31.5 -143t92.5 -44 q38 0 63 16l-78 67l76 89l59 -52q2 15 3.5 31.5t1.5 35.5v98q0 99 -32 143t-93 44t-92.5 -44t-31.5 -143v-98z" glyph-name="Q" horiz-adv-x="630" unicode="Q"/>
<glyph d="M444 0l-124 271h-112v-271h-140v690h247q119 0 188.5 -53t69.5 -158q0 -70 -30.5 -116t-87.5 -69l143 -294h-154zM302 389q63 0 97 18t34 72t-34 73t-97 19h-94v-182h94z" glyph-name="R" horiz-adv-x="617" unicode="R"/>
<glyph d="M427 511q-23 35 -53 52.5t-83 17.5q-48 0 -72.5 -20.5t-24.5 -55.5q0 -41 33.5 -62.5t102.5 -38.5q54 -14 93.5 -31.5t65 -42.5t38 -58.5t12.5 -79.5q0 -42 -14.5 -79t-44 -64t-74 -42.5t-105.5 -15.5q-91 0 -155.5 26.5t-110.5 86.5l107 74q28 -35 62 -52t88 -17 q60 0 83.5 22.5t23.5 54.5q0 18 -6.5 32.5t-22 26.5t-43 23t-69.5 22q-103 27 -153.5 78t-50.5 137q0 41 14 76.5t42.5 61.5t73 41t106.5 15q83 0 144 -28t98 -85z" glyph-name="S" horiz-adv-x="575" unicode="S"/>
<glyph d="M528 690v-119h-190v-571h-140v571h-190v119h520z" glyph-name="T" horiz-adv-x="536" unicode="T"/>
<glyph d="M598 690v-410q0 -77 -20 -131.5t-55 -89.5t-84 -51.5t-106 -16.5t-106 16.5t-84 51.5t-55 89.5t-20 130.5v411h140v-411q0 -89 30 -129.5t95 -40.5t95 40.5t30 129.5v411h140z" glyph-name="U" horiz-adv-x="666" unicode="U"/>
<glyph d="M156 690l151 -464l151 464h153l-240 -690h-127l-241 690h153z" glyph-name="V" horiz-adv-x="614" unicode="V"/>
<glyph d="M298 0h-133l-158 690h150l92 -454l131 454h126l135 -457l91 457h151l-159 -690h-134l-146 475z" glyph-name="W" horiz-adv-x="889" unicode="W"/>
<glyph d="M13 0l194 356l-173 334h152l110 -220l111 220h151l-174 -334l195 -356h-151l-132 235l-131 -235h-152z" glyph-name="X" horiz-adv-x="592" unicode="X"/>
<glyph d="M168 690l123 -257l124 257h161l-215 -408v-282h-140v282l-215 408h162z" glyph-name="Y" horiz-adv-x="583" unicode="Y"/>
<glyph d="M486 690v-92l-278 -480h288v-118h-466v92l280 479h-280v119h456z" glyph-name="Z" horiz-adv-x="519" unicode="Z"/>
<glyph d="M70 792h239v-108h-112v-678h112v-108h-239v894z" glyph-name="bracketleft" horiz-adv-x="335" unicode="["/>
<glyph d="M141 812l336 -928h-116l-336 928h116z" glyph-name="backslash" horiz-adv-x="485" unicode="\"/>
<glyph d="M265 792v-894h-239v106h112v682h-112v106h239z" glyph-name="bracketright" horiz-adv-x="335" unicode="]"/>
<glyph d="M327 690l176 -253h-144l-89 129l-82 -129h-150l174 253h115z" glyph-name="asciicircum" unicode="^"/>
<glyph d="M526 -66v-103h-526v103h526z" glyph-name="underscore" horiz-adv-x="526" unicode="_"/>
<glyph d="M275 567h-122l-91 158h143z" glyph-name="grave" horiz-adv-x="337" unicode="`"/>
<glyph d="M26 148q0 40 14 68.5t39 47t59 27.5t73 9h99v29q0 42 -17.5 58t-71.5 16q-37 0 -57.5 -7.5t-36.5 -32.5l-90 63q28 46 73.5 64.5t122.5 18.5q48 0 86 -8t63.5 -28.5t39 -55.5t13.5 -89v-328h-125v44q-15 -26 -39.5 -39.5t-68.5 -13.5q-78 0 -127 40t-49 117zM310 206h-84 q-39 0 -57 -13.5t-18 -42.5t20 -42.5t53 -13.5q44 0 65 21t21 72v19z" glyph-name="a" horiz-adv-x="486" unicode="a"/>
<glyph d="M172 469q20 22 48 31t60 9q91 0 144 -57.5t53 -170.5v-60q0 -51 -12 -93.5t-37 -73t-62 -47t-86 -16.5q-72 0 -108 39v-30h-121v690h121v-221zM261 99q26 0 43 9.5t27.5 26.5t14.5 40t4 50v52q0 60 -20.5 92t-68.5 32t-68.5 -32t-20.5 -92v-52q0 -54 19.5 -90t69.5 -36z " glyph-name="b" horiz-adv-x="510" unicode="b"/>
<glyph d="M438 76q-26 -45 -70 -65t-112 -20q-54 0 -95.5 16t-70 46t-43 71.5t-14.5 92.5v68q0 110 59 167t171 57q58 0 103.5 -20.5t71.5 -62.5l-96 -67q-13 18 -32.5 30t-49.5 12q-54 0 -77 -32t-23 -92v-52q0 -27 4 -50t15.5 -40t31 -26.5t49.5 -9.5q57 0 83 43z" glyph-name="c" horiz-adv-x="446" unicode="c"/>
<glyph d="M338 690h127v-690h-127v29q-20 -18 -46 -28t-61 -10q-49 0 -86 16.5t-62 46.5t-37.5 71.5t-12.5 91.5v68q0 110 54 167t144 57q66 0 107 -35v216zM249 99q27 0 44.5 9.5t27 26.5t13.5 40t4 50v63q0 55 -22 84t-67 29q-48 0 -68.5 -32t-20.5 -92v-52q0 -27 4 -50t14.5 -40 t27.5 -26.5t43 -9.5z" glyph-name="d" horiz-adv-x="517" unicode="d"/>
<glyph d="M438 76q-26 -46 -70.5 -65.5t-112.5 -19.5q-56 0 -98 17t-69.5 47.5t-41 72t-13.5 89.5v68q0 114 54 169t152 55q106 0 156 -59.5t50 -174.5v-57h-285q1 -52 21 -85.5t73 -33.5q20 0 33.5 3t23.5 8.5t17.5 13.5t14.5 18zM240 401q-38 0 -57 -24.5t-23 -67.5h157 q-2 49 -21.5 70.5t-55.5 21.5z" glyph-name="e" horiz-adv-x="486" unicode="e"/>
<glyph d="M78 500v27q0 48 9.5 79.5t30.5 50t53.5 26t77.5 7.5h37v-112h-24q-35 0 -46 -16.5t-11 -54.5v-7h81v-108h-81v-392h-127v392h-64v108h64z" glyph-name="f" horiz-adv-x="301" unicode="f"/>
<glyph d="M338 500h127v-490q0 -63 -16.5 -103t-46 -63t-70 -31.5t-87.5 -8.5q-70 0 -116.5 19.5t-79.5 70.5l86 62q17 -23 40 -34t58 -11q57 0 81 20.5t24 78.5v16q-41 -35 -107 -35q-49 0 -86 16.5t-62 46.5t-37.5 71.5t-12.5 91.5v68q0 110 54 167t144 57q66 0 107 -35v26z M249 99q51 0 70 32.5t19 82.5v63q0 60 -20.5 92t-68.5 32t-68.5 -32t-20.5 -92v-52q0 -27 4 -50t14.5 -40t27.5 -26.5t43 -9.5z" glyph-name="g" horiz-adv-x="517" unicode="g"/>
<glyph d="M51 690h128v-229q14 19 41 33.5t71 14.5q38 0 71.5 -10t58 -32.5t39 -60.5t14.5 -93v-313h-127v293q0 59 -20.5 82.5t-59.5 23.5q-45 0 -66.5 -27.5t-21.5 -77.5v-294h-128v690z" glyph-name="h" horiz-adv-x="526" unicode="h"/>
<glyph d="M66 500h128v-500h-128v500zM61 690h138v-124h-138v124z" glyph-name="i" horiz-adv-x="260" unicode="i"/>
<glyph d="M194 -27q0 -48 -11.5 -79.5t-35.5 -50t-60.5 -26t-86.5 -7.5v110q40 0 53.5 18t13.5 53v509h127v-527zM62 690h137v-124h-137v124z" glyph-name="j" horiz-adv-x="251" unicode="j"/>
<glyph d="M471 500l-173 -209l202 -291h-150l-137 188l-34 -42v-146h-128v690h128v-372l140 182h152z" glyph-name="k" horiz-adv-x="502" unicode="k"/>
<glyph d="M51 690h128v-501q0 -41 14.5 -60t55.5 -19v-110q-51 0 -88 7.5t-61.5 25.5t-36.5 49t-12 78v530z" glyph-name="l" horiz-adv-x="285" unicode="l"/>
<glyph d="M461 0h-127v293q0 60 -21 83t-55 23q-35 0 -57 -25.5t-22 -79.5v-294h-128v500h125v-42q14 20 41.5 35.5t69.5 15.5q45 0 81 -17t59 -50q24 29 60 48t84 19q82 0 127.5 -49t45.5 -147v-313h-128v293q0 57 -19.5 81.5t-57.5 24.5q-35 0 -56.5 -25.5t-21.5 -79.5v-294z" glyph-name="m" horiz-adv-x="795" unicode="m"/>
<glyph d="M51 500h125v-42q14 19 43.5 35t71.5 16q38 0 71.5 -10t58 -32.5t39 -60.5t14.5 -93v-313h-127v293q0 59 -20.5 82.5t-59.5 23.5q-45 0 -66.5 -27.5t-21.5 -77.5v-294h-128v500z" glyph-name="n" horiz-adv-x="526" unicode="n"/>
<glyph d="M465 221q0 -51 -12.5 -93.5t-39 -73t-67 -47t-97.5 -16.5q-109 0 -162.5 62.5t-53.5 167.5v60q0 113 56.5 170.5t159.5 57.5q105 0 160.5 -57.5t55.5 -170.5v-60zM249 99q26 0 43.5 9.5t27.5 26.5t14 40t4 50v52q0 60 -20.5 92t-68.5 32t-68.5 -32t-20.5 -92v-52 q0 -27 4 -50t14 -40t27 -26.5t44 -9.5z" glyph-name="o" horiz-adv-x="499" unicode="o"/>
<glyph d="M484 217q0 -49 -12.5 -90.5t-37 -71.5t-61 -47t-84.5 -17q-39 0 -66 7.5t-44 21.5v-210h-128v690h128v-33q37 42 111 42q43 0 79 -15t61.5 -43.5t39.5 -70t14 -95.5v-68zM268 99q26 0 43 9.5t27 26.5t14 40t4 50v52q0 60 -20 92t-68 32q-46 0 -67.5 -29t-21.5 -84v-63 q0 -27 4 -50t13.5 -40t27 -26.5t44.5 -9.5z" glyph-name="p" horiz-adv-x="517" unicode="p"/>
<glyph d="M338 500h127v-690h-127v218q-42 -37 -107 -37q-49 0 -86 16.5t-62 46.5t-37.5 71.5t-12.5 91.5v68q0 110 54 167t144 57q35 0 61 -9t46 -25v25zM249 99q27 0 44.5 9.5t27 26.5t13.5 40t4 50v52q0 60 -20.5 92t-68.5 32t-68.5 -32t-20.5 -92v-52q0 -27 4 -50t14.5 -40 t27.5 -26.5t43 -9.5z" glyph-name="q" horiz-adv-x="517" unicode="q"/>
<glyph d="M322 361q-11 14 -24 26q-15 12 -39 12q-36 0 -58 -26t-22 -79v-294h-128v500h125v-42q13 19 38.5 35t70.5 16q90 0 135 -78z" glyph-name="r" horiz-adv-x="410" unicode="r"/>
<glyph d="M325 359q-17 20 -37 30t-61 10q-25 0 -44 -8.5t-19 -30.5q0 -23 20 -33t60 -16q93 -14 139 -52t46 -113q0 -72 -49.5 -113.5t-146.5 -41.5q-77 0 -126 19.5t-81 63.5l98 70q15 -20 37.5 -31.5t69.5 -11.5q33 0 52 10.5t19 30.5q0 23 -19 33t-66 18q-39 6 -72 18t-57 31.5 t-37.5 47t-13.5 65.5q0 72 49.5 113t143.5 41q62 0 111 -17.5t78 -65.5z" glyph-name="s" horiz-adv-x="464" unicode="s"/>
<glyph d="M14 500h64v110h127v-110h98v-108h-98v-209q0 -38 11 -54.5t46 -16.5h41v-112h-54q-45 0 -77.5 7.5t-53.5 26t-30.5 50t-9.5 79.5v229h-64v108z" glyph-name="t" horiz-adv-x="331" unicode="t"/>
<glyph d="M474 0h-125v42q-16 -26 -40 -38.5t-74 -12.5q-38 0 -71.5 10t-58.5 33.5t-39.5 61t-14.5 92.5v312h128v-293q0 -60 20.5 -83t60.5 -23q87 0 87 105v294h127v-500z" glyph-name="u" horiz-adv-x="526" unicode="u"/>
<glyph d="M504 500l-190 -500h-120l-194 500h140l112 -324l111 324h141z" glyph-name="v" horiz-adv-x="504" unicode="v"/>
<glyph d="M245 0h-104l-138 500h132l71 -286l101 286h94l108 -287l71 287h133l-139 -500h-103l-113 313z" glyph-name="w" horiz-adv-x="716" unicode="w"/>
<glyph d="M342 0l-97 152l-97 -152h-141l164 256l-151 244h141l84 -143l84 143h141l-151 -244l165 -256h-142z" glyph-name="x" horiz-adv-x="490" unicode="x"/>
<glyph d="M139 500l111 -320l100 320h129l-175 -523q-17 -50 -35 -82.5t-43.5 -51.5t-62 -26t-88.5 -7v114q26 0 44.5 2.5t32 10t23 21t17.5 35.5l-187 507h134z" glyph-name="y" horiz-adv-x="479" unicode="y"/>
<glyph d="M250 392h-217v108h382v-89l-217 -303h224v-108h-392v89z" glyph-name="z" horiz-adv-x="449" unicode="z"/>
<glyph d="M227 416q0 -32 -11 -47t-34 -23q23 -8 34 -28t11 -42v-190q0 -24 3.5 -38.5t11.5 -22t20 -10t29 -2.5h14v-108h-41q-38 0 -68.5 6t-51.5 23t-32.5 47t-11.5 79v178q0 29 -12 40.5t-38 11.5h-19v112h19q26 0 38 11.5t12 40.5v178q0 49 11.5 79t32.5 47t51.5 23t68.5 6h41 v-108h-14q-17 0 -29 -2.5t-20 -10t-11.5 -22t-3.5 -38.5v-190z" glyph-name="braceleft" horiz-adv-x="328" unicode="{"/>
<glyph d="M206 -116h-121v928h121v-928z" glyph-name="bar" horiz-adv-x="290" unicode="|"/>
<glyph d="M108 606q0 24 -3.5 38.5t-11 22t-19.5 10t-29 2.5h-14v108h41q38 0 68.5 -6t51.5 -23t32.5 -47t11.5 -79v-178q0 -29 12 -40.5t38 -11.5h19v-112h-19q-26 0 -38 -11.5t-12 -40.5v-178q0 -49 -11.5 -79t-32.5 -47t-51.5 -23t-68.5 -6h-41v108h14q17 0 29 2.5t19.5 10 t11 22t3.5 38.5v190q0 22 11 42t34 28q-23 8 -34 23t-11 47v190z" glyph-name="braceright" horiz-adv-x="317" unicode="}"/>
<glyph d="M355 259q-33 0 -55 7t-40.5 15.5t-36 15.5t-39.5 7q-29 0 -50 -12t-38 -33l-85 69q30 38 73 62t100 24q33 0 55.5 -7t40.5 -15.5t35 -15.5t40 -7q29 0 50 12t38 34l86 -70q-32 -39 -75 -62.5t-99 -23.5z" glyph-name="asciitilde" unicode="~"/>
<glyph glyph-name="uni00A0" horiz-adv-x="250" unicode=" "/>
<glyph d="M188 311h-126v-501h126v501zM193 500h-136v-136h136v136z" glyph-name="exclamdown" horiz-adv-x="250" unicode="¡"/>
<glyph d="M466 79q-39 -69 -126 -82v-113h-114v115q-81 16 -123 74t-42 146v64q0 92 42 147.5t123 70.5v121h114v-120q41 -8 73.5 -27.5t52.5 -51.5l-96 -67q-13 18 -32.5 30t-49.5 12q-54 0 -77 -32t-23 -92v-46q0 -27 4 -50t15.5 -40t31 -26.5t49.5 -9.5q29 0 49 10t34 33z" glyph-name="cent" unicode="¢"/>
<glyph d="M27 118h73v159h-73v119h73v31q0 75 16.5 127t45.5 84t69 46.5t88 14.5q69 0 118 -24t85 -79l-115 -65q-14 18 -33.5 34t-48.5 16q-20 0 -35.5 -7.5t-26.5 -25.5t-17 -47.5t-6 -73.5v-31h131v-119h-131v-159h259v-118h-472v118z" glyph-name="sterling" unicode="£"/>
<glyph d="M72 366q0 48 22 92l-79 79l84 84l77 -78q21 11 45 17.5t50 6.5q51 0 94 -23l78 78l84 -84l-78 -78q23 -43 23 -94q0 -26 -6.5 -49.5t-17.5 -44.5l79 -78l-84 -84l-79 78q-44 -22 -93 -22q-51 0 -94 23l-78 -78l-84 84l79 79q-22 42 -22 92zM179 366q0 -40 26.5 -67.5 t65.5 -27.5q40 0 66.5 27.5t26.5 67.5t-26.5 68t-66.5 28q-39 0 -65.5 -28t-26.5 -68z" glyph-name="currency" unicode="¤"/>
<glyph d="M197 231v51h-137v112h74l-112 296h155l90 -293l95 293h157l-119 -296h74v-112h-137v-51h137v-112h-137v-119h-140v119h-137v112h137z" glyph-name="yen" unicode="¥"/>
<glyph d="M209 0h-140v243h140v-243zM209 447h-140v243h140v-243z" glyph-name="brokenbar" horiz-adv-x="268" unicode="¦"/>
<glyph d="M199 -35q2 -18 11 -32t40 -14q28 0 40.5 12.5t12.5 30.5q0 22 -17 40t-65 35q-42 15 -75 32t-56 41t-35 58t-12 82q0 57 24.5 97t66.5 63q-28 22 -45 52t-17 73q0 72 49 114t134 42q89 0 132.5 -39.5t43.5 -116.5h-126q-2 18 -11.5 32t-40.5 14q-28 0 -40 -12.5 t-12 -30.5q0 -22 17.5 -40.5t69.5 -36.5q39 -14 70.5 -30t54 -40t35 -58t12.5 -83q0 -57 -24.5 -97.5t-66.5 -63.5q28 -22 45 -52t17 -72q0 -72 -49 -114t-133 -42q-90 0 -133 39.5t-44 116.5h127zM333 250q0 41 -22.5 61t-58.5 20q-38 0 -60 -21.5t-22 -59.5t22 -59.5 t60 -21.5t59.5 21.5t21.5 59.5z" glyph-name="section" horiz-adv-x="533" unicode="§"/>
<glyph d="M49 690h124v-117h-124v117zM253 690h123v-117h-123v117z" glyph-name="dieresis" horiz-adv-x="426" unicode="¨"/>
<glyph d="M34 250q0 92 34.5 172.5t94.5 140t140 93.5t171 34t171 -34t140 -93.5t94.5 -140t34.5 -172.5t-34.5 -172.5t-94.5 -140t-140 -93.5t-171 -34t-171 34t-140 93.5t-94.5 140t-34.5 172.5zM154 250q0 -68 25 -128t68 -104t101.5 -69.5t125.5 -25.5t125.5 25.5t101.5 69.5 t67.5 104t24.5 128t-24.5 127.5t-67.5 103.5t-101.5 70t-125.5 26t-125.5 -26t-101.5 -70t-68 -103.5t-25 -127.5zM660 76q-26 -45 -70 -65t-112 -20q-54 0 -95.5 16t-70 46t-43 71.5t-14.5 92.5v68q0 110 59 167t171 57q58 0 103.5 -20.5t71.5 -62.5l-96 -67 q-13 18 -32.5 30t-49.5 12q-54 0 -77 -32t-23 -92v-52q0 -27 4 -50t15.5 -40t31 -26.5t49.5 -9.5q57 0 83 43z" glyph-name="copyright" horiz-adv-x="956" unicode="©"/>
<glyph d="M16 467q0 51 31 74.5t89 23.5h60v15q0 24 -11 34t-41 10q-25 0 -37.5 -7.5t-23.5 -25.5l-60 41q17 32 47.5 46t82.5 14q63 0 96.5 -22t33.5 -79v-217h-87v23q-12 -16 -28 -21.5t-43 -5.5q-45 0 -77 23.5t-32 73.5zM196 500h-47q-25 0 -35 -8t-10 -25q0 -16 11.5 -22.5 t29.5 -6.5q23 0 37 9.5t14 41.5v11z" glyph-name="ordfeminine" horiz-adv-x="316" unicode="ª"/>
<glyph d="M262 514v-143l-90 -88l90 -89v-142l-232 231zM477 514v-143l-89 -88l89 -89v-142l-232 231z" glyph-name="guillemotleft" horiz-adv-x="519" unicode="«"/>
<glyph d="M355 167v133h-318v112h447v-245h-129z" glyph-name="logicalnot" horiz-adv-x="534" unicode="¬"/>
<glyph d="M30 345h259v-112h-259v112z" glyph-name="uni00AD" horiz-adv-x="319" unicode="­"/>
<glyph d="M7 501q0 54 20.5 101.5t56.5 83.5t83.5 56.5t101.5 20.5t101.5 -20.5t83.5 -56.5t56.5 -83.5t20.5 -101.5t-20.5 -101.5t-56.5 -83.5t-83.5 -56.5t-101.5 -20.5t-101.5 20.5t-83.5 56.5t-56.5 83.5t-20.5 101.5zM82 501q0 -39 14.5 -73t40 -59.5t59.5 -40t73 -14.5 t73 14.5t59.5 40t40 59.5t14.5 73t-14.5 73t-40 59.5t-59.5 40t-73 14.5t-73 -14.5t-59.5 -40t-40 -59.5t-14.5 -73zM163 374v261h111q27 0 46 -7t31.5 -18.5t18 -26.5t5.5 -31q0 -29 -12.5 -47.5t-35.5 -28.5l61 -102h-76l-51 90h-31v-90h-67zM260 520q24 0 35 7t11 24 q0 28 -41 28h-35v-59h30z" glyph-name="registered" horiz-adv-x="544" unicode="®"/>
<glyph d="M61 684h283v-111h-283v111z" glyph-name="macron" horiz-adv-x="405" unicode="¯"/>
<glyph d="M13 559q0 30 11 56t30 44.5t45 29.5t55 11t55 -11t45 -29.5t30 -44.5t11 -56t-11 -56t-30 -44.5t-45 -29.5t-55 -11t-55 11t-45 29.5t-30 44.5t-11 56zM102 559q0 -23 15 -38t37 -15t36 15t14 38q0 22 -14 37t-36 15t-37 -15t-15 -37z" glyph-name="degree" horiz-adv-x="308" unicode="°"/>
<glyph d="M59 448h139v141h109v-141h141v-108h-141v-105h-109v105h-139v108zM59 212h389v-108h-389v108z" glyph-name="plusminus" horiz-adv-x="506" unicode="±"/>
<glyph d="M264 374h-233v63l103 89q17 15 26.5 28.5t9.5 29.5q0 31 -30 31q-14 0 -22.5 -9t-10.5 -24h-82q0 27 10 48t26.5 35t38 21t44.5 7q51 0 83 -27t32 -77q0 -33 -18.5 -58t-44.5 -48l-47 -41h115v-68z" glyph-name="twosuperior" horiz-adv-x="278" unicode="²"/>
<glyph d="M119 566h13q39 0 39 30q0 12 -8 18.5t-21 6.5q-14 0 -22 -7.5t-10 -19.5h-84q0 46 34 72.5t85 26.5t80.5 -23.5t29.5 -65.5q0 -26 -13 -42t-30 -24q23 -8 36 -27t13 -43q0 -49 -33 -73t-83 -24q-59 0 -90 29.5t-33 71.5h85q2 -12 10 -19.5t25 -7.5q14 0 23.5 7t9.5 23 q0 14 -10 23t-33 9h-13v59z" glyph-name="threesuperior" horiz-adv-x="301" unicode="³"/>
<glyph d="M163 725h143l-91 -158h-122z" glyph-name="acute" horiz-adv-x="399" unicode="´"/>
<glyph d="M576 -190h-133v761h-75v-761h-133v500q-39 0 -74 15t-60.5 40.5t-40.5 60.5t-15 74t15 74t40.5 60.5t60.5 40.5t74 15h341v-880z" glyph-name="paragraph" horiz-adv-x="655" unicode="¶"/>
<glyph d="M183 273h-150v150h150v-150z" glyph-name="periodcentered" horiz-adv-x="216" unicode="·"/>
<glyph d="M136 25l81 -3l-12 -44q52 -20 52 -72q0 -41 -33 -63.5t-85 -22.5q-16 0 -28 1t-18 3l15 65q5 -1 9 -1.5t10 -0.5q15 0 24 5t9 16t-12 15.5t-32 4.5z" glyph-name="cedilla" horiz-adv-x="350" unicode="¸"/>
<glyph d="M215 374h-88v223l-57 -37v87l64 43h81v-316z" glyph-name="onesuperior" horiz-adv-x="277" unicode="¹"/>
<glyph d="M308 510q0 -66 -36.5 -102.5t-103.5 -36.5q-62 0 -100.5 35t-38.5 104v45q0 71 39.5 104.5t99.5 33.5q31 0 56.5 -8t44 -25t29 -43t10.5 -62v-45zM168 451q25 0 38.5 15.5t13.5 44.5v43q0 32 -14.5 45.5t-37.5 13.5t-37 -13.5t-14 -45.5v-43q0 -60 51 -60z" glyph-name="ordmasculine" horiz-adv-x="350" unicode="º"/>
<glyph d="M489 283l-232 -231v142l89 89l-89 88v143zM273 283l-232 -231v142l90 89l-90 88v143z" glyph-name="guillemotright" horiz-adv-x="519" unicode="»"/>
<glyph d="M211 374h-88v223l-57 -37v87l64 43h81v-316zM559 317l-123 -198h51v45h88v-45h39v-71h-39v-47h-88v47h-161v64l131 205h102zM615 690l-474 -690h-128l475 690h127z" glyph-name="onequarter" horiz-adv-x="658" unicode="¼"/>
<glyph d="M211 374h-88v223l-57 -37v87l64 43h81v-316zM611 1h-233v63l103 89q17 15 26.5 28.5t9.5 29.5q0 31 -30 31q-14 0 -22.5 -9t-10.5 -24h-82q0 27 10 48t26.5 35t38 21t44.5 7q51 0 83 -27t32 -77q0 -33 -18.5 -58t-44.5 -48l-47 -41h115v-68zM615 690l-474 -690h-128 l475 690h127z" glyph-name="onehalf" horiz-adv-x="650" unicode="½"/>
<glyph d="M114 566h13q39 0 39 30q0 12 -8 18.5t-21 6.5q-14 0 -22 -7.5t-10 -19.5h-84q0 46 34 72.5t85 26.5t80.5 -23.5t29.5 -65.5q0 -26 -13 -42t-30 -24q23 -8 36 -27t13 -43q0 -49 -33 -73t-83 -24q-59 0 -90 29.5t-33 71.5h85q2 -12 10 -19.5t25 -7.5q14 0 23.5 7t9.5 23 q0 14 -10 23t-33 9h-13v59zM559 317l-123 -198h51v45h88v-45h39v-71h-39v-47h-88v47h-161v64l131 205h102zM615 690l-474 -690h-128l475 690h127z" glyph-name="threequarters" horiz-adv-x="632" unicode="¾"/>
<glyph d="M325 311v-69q0 -32 -7.5 -53.5t-31.5 -44.5l-45 -43q-30 -28 -47 -51.5t-17 -58.5t22 -54t55 -19q31 0 54 17t24 51h132q0 -46 -17 -81t-45.5 -58t-66.5 -34.5t-81 -11.5q-44 0 -83.5 11.5t-69 35t-47 59.5t-17.5 85q0 60 29 104.5t71 85.5l33 32q15 15 24.5 28t9.5 38 v31h121zM196 500h137v-136h-137v136z" glyph-name="questiondown" horiz-adv-x="487" unicode="¿"/>
<glyph d="M-4 0l240 690h134l240 -690h-149l-42 131h-231l-42 -131h-150zM225 249h156l-78 243zM362 742h-125l-103 129h148z" glyph-name="Agrave" horiz-adv-x="607" unicode="À"/>
<glyph d="M-4 0l240 690h134l240 -690h-149l-42 131h-231l-42 -131h-150zM225 249h156l-78 243zM324 871h147l-103 -129h-124z" glyph-name="Aacute" horiz-adv-x="607" unicode="Á"/>
<glyph d="M-4 0l240 690h134l240 -690h-149l-42 131h-231l-42 -131h-150zM225 249h156l-78 243zM356 879l138 -142h-133l-58 61l-57 -61h-133l138 142h105z" glyph-name="Acircumflex" horiz-adv-x="607" unicode="Â"/>
<glyph d="M-4 0l240 690h134l240 -690h-149l-42 131h-231l-42 -131h-150zM225 249h156l-78 243zM365 738q-19 0 -35 4q-16 5 -30 10.5t-27 10t-26 4.5q-29 0 -52 -26l-68 69q23 27 53.5 43.5t64.5 16.5q17 0 32.5 -4.5t29.5 -10t27.5 -10t27.5 -4.5q27 0 50 27l68 -69 q-22 -27 -52.5 -44t-62.5 -17z" glyph-name="Atilde" horiz-adv-x="607" unicode="Ã"/>
<glyph d="M-4 0l240 690h134l240 -690h-149l-42 131h-231l-42 -131h-150zM225 249h156l-78 243zM140 869h124v-117h-124v117zM343 869h124v-117h-124v117z" glyph-name="Adieresis" horiz-adv-x="607" unicode="Ä"/>
<glyph d="M-4 0l230 661q-38 27 -38 76q0 46 32.5 72.5t82.5 26.5q51 0 84 -26.5t33 -72.5q0 -25 -10.5 -44.5t-29.5 -32.5l230 -660h-149l-42 131h-231l-42 -131h-150zM225 249h156l-78 243zM267 737q0 -15 9.5 -23t26.5 -8q37 0 37 31t-37 31q-17 0 -26.5 -7.5t-9.5 -23.5z" glyph-name="Aring" horiz-adv-x="607" unicode="Å"/>
<glyph d="M-4 0l391 690h477v-119h-289v-155h259v-118h-259v-180h289v-118h-429v138h-198l-77 -138h-164zM435 256v238l-133 -238h133z" glyph-name="AE" horiz-adv-x="894" unicode="Æ"/>
<glyph d="M275 -7q-51 5 -93 26q-42 20 -72 57.5t-46.5 92t-16.5 127.5v98q0 80 19.5 137.5t54.5 95t83.5 55t106.5 17.5q103 0 169.5 -54.5t83.5 -168.5h-134q-10 49 -39 77t-80 28q-61 0 -92.5 -44t-31.5 -143v-98q0 -97 31.5 -142t92.5 -45q53 0 80.5 26t38.5 79h133 q-16 -105 -68 -157.5t-140 -62.5l-4 -16q53 -20 53 -72q0 -41 -33.5 -63.5t-85.5 -22.5q-16 0 -28 1t-18 3l15 65q5 -1 9 -1.5t10 -0.5q15 0 24 5t9 16t-12 15.5t-32 4.5z" glyph-name="Ccedilla" horiz-adv-x="594" unicode="Ç"/>
<glyph d="M498 690v-119h-290v-155h260v-118h-260v-180h290v-118h-430v690h430zM369 742h-125l-103 129h148z" glyph-name="Egrave" horiz-adv-x="527" unicode="È"/>
<glyph d="M498 690v-119h-290v-155h260v-118h-260v-180h290v-118h-430v690h430zM281 871h147l-103 -129h-124z" glyph-name="Eacute" horiz-adv-x="527" unicode="É"/>
<glyph d="M498 690v-119h-290v-155h260v-118h-260v-180h290v-118h-430v690h430zM335 879l138 -142h-133l-58 61l-57 -61h-133l138 142h105z" glyph-name="Ecircumflex" horiz-adv-x="527" unicode="Ê"/>
<glyph d="M498 690v-119h-290v-155h260v-118h-260v-180h290v-118h-430v690h430zM119 869h124v-117h-124v117zM322 869h124v-117h-124v117z" glyph-name="Edieresis" horiz-adv-x="527" unicode="Ë"/>
<glyph d="M218 0h-140v690h140v-690zM220 742h-125l-103 129h148z" glyph-name="Igrave" horiz-adv-x="296" unicode="Ì"/>
<glyph d="M218 0h-140v690h140v-690zM158 871h147l-103 -129h-124z" glyph-name="Iacute" horiz-adv-x="296" unicode="Í"/>
<glyph d="M218 0h-140v690h140v-690zM202 879l138 -142h-133l-58 61l-57 -61h-133l138 142h105z" glyph-name="Icircumflex" horiz-adv-x="296" unicode="Î"/>
<glyph d="M218 0h-140v690h140v-690zM-14 869h124v-117h-124v117zM189 869h124v-117h-124v117z" glyph-name="Idieresis" horiz-adv-x="296" unicode="Ï"/>
<glyph d="M69 0v298h-79v118h79v274h245q58 0 107 -16t84 -51.5t54.5 -93t19.5 -139.5v-90q0 -82 -19.5 -139t-54.5 -93t-84 -52t-107 -16h-245zM314 118q70 0 97.5 46t27.5 136v90q0 90 -27.5 135.5t-97.5 45.5h-105v-155h136v-118h-136v-180h105z" glyph-name="Eth" horiz-adv-x="626" unicode="Ð"/>
<glyph d="M587 690v-690h-117l-269 427v-427h-133v690h116l270 -433v433h133zM389 738q-19 0 -35 4q-16 5 -30 10.5t-27 10t-26 4.5q-29 0 -52 -26l-68 69q23 27 53.5 43.5t64.5 16.5q17 0 32.5 -4.5t29.5 -10t27.5 -10t27.5 -4.5q27 0 50 27l68 -69q-22 -27 -52.5 -44t-62.5 -17z " glyph-name="Ntilde" horiz-adv-x="656" unicode="Ñ"/>
<glyph d="M576 296q0 -79 -19.5 -136.5t-54.5 -95t-84 -55.5t-107 -18t-106.5 18t-83.5 55.5t-54.5 95t-19.5 136.5v98q0 80 19.5 137.5t54.5 95t83.5 55t106.5 17.5t107 -17.5t84 -55t54.5 -95t19.5 -137.5v-98zM187 296q0 -99 31.5 -143t92.5 -44t93 44t32 143v98q0 99 -32 143 t-93 44t-92.5 -44t-31.5 -143v-98zM392 742h-125l-103 129h148z" glyph-name="Ograve" horiz-adv-x="623" unicode="Ò"/>
<glyph d="M576 296q0 -79 -19.5 -136.5t-54.5 -95t-84 -55.5t-107 -18t-106.5 18t-83.5 55.5t-54.5 95t-19.5 136.5v98q0 80 19.5 137.5t54.5 95t83.5 55t106.5 17.5t107 -17.5t84 -55t54.5 -95t19.5 -137.5v-98zM187 296q0 -99 31.5 -143t92.5 -44t93 44t32 143v98q0 99 -32 143 t-93 44t-92.5 -44t-31.5 -143v-98zM317 871h147l-103 -129h-124z" glyph-name="Oacute" horiz-adv-x="623" unicode="Ó"/>
<glyph d="M576 296q0 -79 -19.5 -136.5t-54.5 -95t-84 -55.5t-107 -18t-106.5 18t-83.5 55.5t-54.5 95t-19.5 136.5v98q0 80 19.5 137.5t54.5 95t83.5 55t106.5 17.5t107 -17.5t84 -55t54.5 -95t19.5 -137.5v-98zM187 296q0 -99 31.5 -143t92.5 -44t93 44t32 143v98q0 99 -32 143 t-93 44t-92.5 -44t-31.5 -143v-98zM364 879l138 -142h-133l-58 61l-57 -61h-133l138 142h105z" glyph-name="Ocircumflex" horiz-adv-x="623" unicode="Ô"/>
<glyph d="M576 296q0 -79 -19.5 -136.5t-54.5 -95t-84 -55.5t-107 -18t-106.5 18t-83.5 55.5t-54.5 95t-19.5 136.5v98q0 80 19.5 137.5t54.5 95t83.5 55t106.5 17.5t107 -17.5t84 -55t54.5 -95t19.5 -137.5v-98zM187 296q0 -99 31.5 -143t92.5 -44t93 44t32 143v98q0 99 -32 143 t-93 44t-92.5 -44t-31.5 -143v-98zM373 738q-19 0 -35 4q-16 5 -30 10.5t-27 10t-26 4.5q-29 0 -52 -26l-68 69q23 27 53.5 43.5t64.5 16.5q17 0 32.5 -4.5t29.5 -10t27.5 -10t27.5 -4.5q27 0 50 27l68 -69q-22 -27 -52.5 -44t-62.5 -17z" glyph-name="Otilde" horiz-adv-x="623" unicode="Õ"/>
<glyph d="M576 296q0 -79 -19.5 -136.5t-54.5 -95t-84 -55.5t-107 -18t-106.5 18t-83.5 55.5t-54.5 95t-19.5 136.5v98q0 80 19.5 137.5t54.5 95t83.5 55t106.5 17.5t107 -17.5t84 -55t54.5 -95t19.5 -137.5v-98zM187 296q0 -99 31.5 -143t92.5 -44t93 44t32 143v98q0 99 -32 143 t-93 44t-92.5 -44t-31.5 -143v-98zM148 869h124v-117h-124v117zM351 869h124v-117h-124v117z" glyph-name="Odieresis" horiz-adv-x="623" unicode="Ö"/>
<glyph d="M92 237l117 117l-117 118l77 77l118 -118l118 118l77 -77l-118 -118l117 -117l-78 -78l-117 117l-116 -117z" glyph-name="multiply" horiz-adv-x="563" unicode="×"/>
<glyph d="M89 -116l57 157q-47 36 -73 99t-26 156v98q0 80 19.5 137.5t54.5 95t83.5 55t106.5 17.5q18 0 35.5 -2t34.5 -5l44 120h115l-60 -166q45 -36 70.5 -98t25.5 -154v-98q0 -79 -19.5 -136.5t-54.5 -95t-84 -55.5t-107 -18q-17 0 -33.5 2t-32.5 5l-41 -114h-115zM187 296 q0 -65 13 -105l140 387q-14 3 -29 3q-61 0 -92.5 -44t-31.5 -143v-98zM436 394q0 58 -12 99l-138 -382q6 -2 12 -2h13q61 0 93 44t32 143v98z" glyph-name="Oslash" horiz-adv-x="623" unicode="Ø"/>
<glyph d="M598 690v-410q0 -77 -20 -131.5t-55 -89.5t-84 -51.5t-106 -16.5t-106 16.5t-84 51.5t-55 89.5t-20 130.5v411h140v-411q0 -89 30 -129.5t95 -40.5t95 40.5t30 129.5v411h140zM405 742h-125l-103 129h148z" glyph-name="Ugrave" horiz-adv-x="666" unicode="Ù"/>
<glyph d="M598 690v-410q0 -77 -20 -131.5t-55 -89.5t-84 -51.5t-106 -16.5t-106 16.5t-84 51.5t-55 89.5t-20 130.5v411h140v-411q0 -89 30 -129.5t95 -40.5t95 40.5t30 129.5v411h140zM341 871h147l-103 -129h-124z" glyph-name="Uacute" horiz-adv-x="666" unicode="Ú"/>
<glyph d="M598 690v-410q0 -77 -20 -131.5t-55 -89.5t-84 -51.5t-106 -16.5t-106 16.5t-84 51.5t-55 89.5t-20 130.5v411h140v-411q0 -89 30 -129.5t95 -40.5t95 40.5t30 129.5v411h140zM386 879l138 -142h-133l-58 61l-57 -61h-133l138 142h105z" glyph-name="Ucircumflex" horiz-adv-x="666" unicode="Û"/>
<glyph d="M598 690v-410q0 -77 -20 -131.5t-55 -89.5t-84 -51.5t-106 -16.5t-106 16.5t-84 51.5t-55 89.5t-20 130.5v411h140v-411q0 -89 30 -129.5t95 -40.5t95 40.5t30 129.5v411h140zM170 869h124v-117h-124v117zM373 869h124v-117h-124v117z" glyph-name="Udieresis" horiz-adv-x="666" unicode="Ü"/>
<glyph d="M168 690l123 -257l124 257h161l-215 -408v-282h-140v282l-215 408h162zM301 871h147l-103 -129h-124z" glyph-name="Yacute" horiz-adv-x="583" unicode="Ý"/>
<glyph d="M208 136v-136h-140v690h140v-107h107q119 0 188.5 -55t69.5 -165q0 -111 -68.5 -169t-189.5 -58h-107zM295 255q73 0 105.5 26t32.5 82q0 49 -32.5 75.5t-105.5 26.5h-87v-210h87z" glyph-name="Thorn" horiz-adv-x="590" unicode="Þ"/>
<glyph d="M462 565q0 -32 -14 -57t-47 -41q38 -14 49.5 -42t11.5 -73v-212q0 -45 -9 -72.5t-27 -42.5t-45.5 -20t-64.5 -5h-63v106h33q28 0 38.5 13.5t10.5 42.5v187q0 29 -10 44t-39 15h-33v99h33q26 0 37.5 13t11.5 34q0 20 -16 33t-53 13q-49 0 -68 -29t-19 -80v-491h-128v499 q0 97 51.5 148.5t163.5 51.5q54 0 91.5 -11.5t60.5 -30.5t33.5 -43t10.5 -49z" glyph-name="germandbls" horiz-adv-x="513" unicode="ß"/>
<glyph d="M26 148q0 40 14 68.5t39 47t59 27.5t73 9h99v29q0 42 -17.5 58t-71.5 16q-37 0 -57.5 -7.5t-36.5 -32.5l-90 63q28 46 73.5 64.5t122.5 18.5q48 0 86 -8t63.5 -28.5t39 -55.5t13.5 -89v-328h-125v44q-15 -26 -39.5 -39.5t-68.5 -13.5q-78 0 -127 40t-49 117zM310 206h-84 q-39 0 -57 -13.5t-18 -42.5t20 -42.5t53 -13.5q44 0 65 21t21 72v19zM320 567h-122l-91 158h143z" glyph-name="agrave" horiz-adv-x="486" unicode="à"/>
<glyph d="M26 148q0 40 14 68.5t39 47t59 27.5t73 9h99v29q0 42 -17.5 58t-71.5 16q-37 0 -57.5 -7.5t-36.5 -32.5l-90 63q28 46 73.5 64.5t122.5 18.5q48 0 86 -8t63.5 -28.5t39 -55.5t13.5 -89v-328h-125v44q-15 -26 -39.5 -39.5t-68.5 -13.5q-78 0 -127 40t-49 117zM310 206h-84 q-39 0 -57 -13.5t-18 -42.5t20 -42.5t53 -13.5q44 0 65 21t21 72v19zM232 725h143l-91 -158h-122z" glyph-name="aacute" horiz-adv-x="486" unicode="á"/>
<glyph d="M26 148q0 40 14 68.5t39 47t59 27.5t73 9h99v29q0 42 -17.5 58t-71.5 16q-37 0 -57.5 -7.5t-36.5 -32.5l-90 63q28 46 73.5 64.5t122.5 18.5q48 0 86 -8t63.5 -28.5t39 -55.5t13.5 -89v-328h-125v44q-15 -26 -39.5 -39.5t-68.5 -13.5q-78 0 -127 40t-49 117zM310 206h-84 q-39 0 -57 -13.5t-18 -42.5t20 -42.5t53 -13.5q44 0 65 21t21 72v19zM294 710l108 -142h-114l-47 65l-47 -65h-114l108 142h106z" glyph-name="acircumflex" horiz-adv-x="486" unicode="â"/>
<glyph d="M26 148q0 40 14 68.5t39 47t59 27.5t73 9h99v29q0 42 -17.5 58t-71.5 16q-37 0 -57.5 -7.5t-36.5 -32.5l-90 63q28 46 73.5 64.5t122.5 18.5q48 0 86 -8t63.5 -28.5t39 -55.5t13.5 -89v-328h-125v44q-15 -26 -39.5 -39.5t-68.5 -13.5q-78 0 -127 40t-49 117zM310 206h-84 q-39 0 -57 -13.5t-18 -42.5t20 -42.5t53 -13.5q44 0 65 21t21 72v19zM307 569q-19 0 -34 5q-16 4 -30 9.5t-27 10t-26 4.5q-31 0 -53 -27l-67 64q22 28 53 44.5t64 16.5q17 0 32.5 -4.5t29.5 -10t27.5 -10t27.5 -4.5q27 0 51 27l67 -64q-21 -27 -51.5 -44t-63.5 -17z" glyph-name="atilde" horiz-adv-x="486" unicode="ã"/>
<glyph d="M26 148q0 40 14 68.5t39 47t59 27.5t73 9h99v29q0 42 -17.5 58t-71.5 16q-37 0 -57.5 -7.5t-36.5 -32.5l-90 63q28 46 73.5 64.5t122.5 18.5q48 0 86 -8t63.5 -28.5t39 -55.5t13.5 -89v-328h-125v44q-15 -26 -39.5 -39.5t-68.5 -13.5q-78 0 -127 40t-49 117zM310 206h-84 q-39 0 -57 -13.5t-18 -42.5t20 -42.5t53 -13.5q44 0 65 21t21 72v19zM69 690h124v-117h-124v117zM273 690h123v-117h-123v117z" glyph-name="adieresis" horiz-adv-x="486" unicode="ä"/>
<glyph d="M26 148q0 40 14 68.5t39 47t59 27.5t73 9h99v29q0 42 -17.5 58t-71.5 16q-37 0 -57.5 -7.5t-36.5 -32.5l-90 63q28 46 73.5 64.5t122.5 18.5q48 0 86 -8t63.5 -28.5t39 -55.5t13.5 -89v-328h-125v44q-15 -26 -39.5 -39.5t-68.5 -13.5q-78 0 -127 40t-49 117zM310 206h-84 q-39 0 -57 -13.5t-18 -42.5t20 -42.5t53 -13.5q44 0 65 21t21 72v19zM121 646q0 48 33.5 79t89.5 31t89.5 -31t33.5 -79t-33.5 -78.5t-89.5 -30.5t-89.5 30.5t-33.5 78.5zM207 646q0 -20 10 -32t27 -12q18 0 27.5 12t9.5 32q0 43 -37 43t-37 -43z" glyph-name="aring" horiz-adv-x="486" unicode="å"/>
<glyph d="M712 76q-26 -46 -70.5 -65.5t-111.5 -19.5q-59 0 -99 18t-64 51q-26 -32 -65.5 -50.5t-98.5 -18.5q-81 0 -129 40t-48 115q0 42 14.5 71t40 47.5t60 27t74.5 8.5h95v25q0 20 -3 34.5t-12 24.5t-26 14.5t-45 4.5q-22 0 -37 -2t-26 -7t-19 -12.5t-15 -18.5l-90 61 q26 44 76.5 64.5t122.5 20.5q102 0 146 -48q23 23 55 35.5t77 12.5q96 0 151 -55t55 -180v-58h-285q1 -65 26.5 -91t68.5 -26q35 0 54 10.5t34 32.5zM310 206h-85q-74 0 -74 -56q0 -31 20.5 -43.5t52.5 -12.5q39 0 62.5 19t23.5 73v20zM515 401q-38 0 -57 -24t-23 -70h157 q-2 44 -19.5 69t-57.5 25z" glyph-name="ae" horiz-adv-x="760" unicode="æ"/>
<glyph d="M217 -6q-89 11 -136.5 70.5t-47.5 152.5v68q0 110 59 167t171 57q58 0 103.5 -20.5t71.5 -62.5l-96 -67q-13 18 -32.5 30t-49.5 12q-54 0 -77 -32t-23 -92v-52q0 -27 4 -50t15.5 -40t31 -26.5t49.5 -9.5q57 0 83 43l95 -66q-44 -73 -141 -83l-4 -15q52 -20 52 -72 q0 -41 -33 -63.5t-85 -22.5q-16 0 -28 1t-18 3l15 65q5 -1 9 -1.5t10 -0.5q15 0 24 5t9 16t-12 15.5t-32 4.5z" glyph-name="ccedilla" horiz-adv-x="446" unicode="ç"/>
<glyph d="M438 76q-26 -46 -70.5 -65.5t-112.5 -19.5q-56 0 -98 17t-69.5 47.5t-41 72t-13.5 89.5v68q0 114 54 169t152 55q106 0 156 -59.5t50 -174.5v-57h-285q1 -52 21 -85.5t73 -33.5q20 0 33.5 3t23.5 8.5t17.5 13.5t14.5 18zM240 401q-38 0 -57 -24.5t-23 -67.5h157 q-2 49 -21.5 70.5t-55.5 21.5zM326 567h-122l-91 158h143z" glyph-name="egrave" horiz-adv-x="486" unicode="è"/>
<glyph d="M438 76q-26 -46 -70.5 -65.5t-112.5 -19.5q-56 0 -98 17t-69.5 47.5t-41 72t-13.5 89.5v68q0 114 54 169t152 55q106 0 156 -59.5t50 -174.5v-57h-285q1 -52 21 -85.5t73 -33.5q20 0 33.5 3t23.5 8.5t17.5 13.5t14.5 18zM240 401q-38 0 -57 -24.5t-23 -67.5h157 q-2 49 -21.5 70.5t-55.5 21.5zM234 725h143l-91 -158h-122z" glyph-name="eacute" horiz-adv-x="486" unicode="é"/>
<glyph d="M438 76q-26 -46 -70.5 -65.5t-112.5 -19.5q-56 0 -98 17t-69.5 47.5t-41 72t-13.5 89.5v68q0 114 54 169t152 55q106 0 156 -59.5t50 -174.5v-57h-285q1 -52 21 -85.5t73 -33.5q20 0 33.5 3t23.5 8.5t17.5 13.5t14.5 18zM240 401q-38 0 -57 -24.5t-23 -67.5h157 q-2 49 -21.5 70.5t-55.5 21.5zM292 710l108 -142h-114l-47 65l-47 -65h-114l108 142h106z" glyph-name="ecircumflex" horiz-adv-x="486" unicode="ê"/>
<glyph d="M438 76q-26 -46 -70.5 -65.5t-112.5 -19.5q-56 0 -98 17t-69.5 47.5t-41 72t-13.5 89.5v68q0 114 54 169t152 55q106 0 156 -59.5t50 -174.5v-57h-285q1 -52 21 -85.5t73 -33.5q20 0 33.5 3t23.5 8.5t17.5 13.5t14.5 18zM240 401q-38 0 -57 -24.5t-23 -67.5h157 q-2 49 -21.5 70.5t-55.5 21.5zM75 690h124v-117h-124v117zM279 690h123v-117h-123v117z" glyph-name="edieresis" horiz-adv-x="486" unicode="ë"/>
<glyph d="M66 500h128v-500h-128v500zM190 567h-122l-91 158h143z" glyph-name="igrave" horiz-adv-x="260" unicode="ì"/>
<glyph d="M66 500h128v-500h-128v500zM132 725h143l-91 -158h-122z" glyph-name="iacute" horiz-adv-x="260" unicode="í"/>
<glyph d="M66 500h128v-500h-128v500zM179 710l108 -142h-114l-47 65l-47 -65h-114l108 142h106z" glyph-name="icircumflex" horiz-adv-x="260" unicode="î"/>
<glyph d="M66 500h128v-500h-128v500zM-38 690h124v-117h-124v117zM166 690h123v-117h-123v117z" glyph-name="idieresis" horiz-adv-x="260" unicode="ï"/>
<glyph d="M187 604q-27 9 -54 21l45 85l53 -22l26 50l73 -39l-24 -45q44 -21 74.5 -43t49 -52t27 -70.5t8.5 -98.5v-98v-14v-57q0 -51 -12.5 -93.5t-39 -73t-67 -47t-97.5 -16.5q-109 0 -162.5 62.5t-53.5 167.5v60q0 113 56 170.5t156 57.5q32 0 60.5 -8t49.5 -27q-6 35 -26 56 t-66 42l-25 -48l-73 38zM249 99q26 0 43.5 9.5t27.5 26.5t14 40t4 50v52q0 60 -20.5 92t-68.5 32t-68.5 -32t-20.5 -92v-52q0 -27 4 -50t14 -40t27 -26.5t44 -9.5z" glyph-name="eth" horiz-adv-x="505" unicode="ð"/>
<glyph d="M51 500h125v-42q14 19 43.5 35t71.5 16q38 0 71.5 -10t58 -32.5t39 -60.5t14.5 -93v-313h-127v293q0 59 -20.5 82.5t-59.5 23.5q-45 0 -66.5 -27.5t-21.5 -77.5v-294h-128v500zM324 569q-19 0 -34 4q-16 5 -30 10.5t-27 10t-26 4.5q-31 0 -53 -27l-67 64q22 28 53 44.5 t64 16.5q17 0 32.5 -4.5t29.5 -10t27.5 -10t27.5 -4.5q27 0 51 27l67 -64q-21 -27 -51.5 -44t-63.5 -17z" glyph-name="ntilde" horiz-adv-x="526" unicode="ñ"/>
<glyph d="M465 221q0 -51 -12.5 -93.5t-39 -73t-67 -47t-97.5 -16.5q-109 0 -162.5 62.5t-53.5 167.5v60q0 113 56.5 170.5t159.5 57.5q105 0 160.5 -57.5t55.5 -170.5v-60zM249 99q26 0 43.5 9.5t27.5 26.5t14 40t4 50v52q0 60 -20.5 92t-68.5 32t-68.5 -32t-20.5 -92v-52 q0 -27 4 -50t14 -40t27 -26.5t44 -9.5zM339 567h-122l-91 158h143z" glyph-name="ograve" horiz-adv-x="499" unicode="ò"/>
<glyph d="M465 221q0 -51 -12.5 -93.5t-39 -73t-67 -47t-97.5 -16.5q-109 0 -162.5 62.5t-53.5 167.5v60q0 113 56.5 170.5t159.5 57.5q105 0 160.5 -57.5t55.5 -170.5v-60zM249 99q26 0 43.5 9.5t27.5 26.5t14 40t4 50v52q0 60 -20.5 92t-68.5 32t-68.5 -32t-20.5 -92v-52 q0 -27 4 -50t14 -40t27 -26.5t44 -9.5zM249 725h143l-91 -158h-122z" glyph-name="oacute" horiz-adv-x="499" unicode="ó"/>
<glyph d="M465 221q0 -51 -12.5 -93.5t-39 -73t-67 -47t-97.5 -16.5q-109 0 -162.5 62.5t-53.5 167.5v60q0 113 56.5 170.5t159.5 57.5q105 0 160.5 -57.5t55.5 -170.5v-60zM249 99q26 0 43.5 9.5t27.5 26.5t14 40t4 50v52q0 60 -20.5 92t-68.5 32t-68.5 -32t-20.5 -92v-52 q0 -27 4 -50t14 -40t27 -26.5t44 -9.5zM302 710l108 -142h-114l-47 65l-47 -65h-114l108 142h106z" glyph-name="ocircumflex" horiz-adv-x="499" unicode="ô"/>
<glyph d="M465 221q0 -51 -12.5 -93.5t-39 -73t-67 -47t-97.5 -16.5q-109 0 -162.5 62.5t-53.5 167.5v60q0 113 56.5 170.5t159.5 57.5q105 0 160.5 -57.5t55.5 -170.5v-60zM249 99q26 0 43.5 9.5t27.5 26.5t14 40t4 50v52q0 60 -20.5 92t-68.5 32t-68.5 -32t-20.5 -92v-52 q0 -27 4 -50t14 -40t27 -26.5t44 -9.5zM311 569q-19 0 -35 4q-15 5 -29 10.5t-27 10t-26 4.5q-31 0 -53 -27l-67 64q22 28 53 44.5t64 16.5q17 0 32.5 -4.5t29.5 -10t27.5 -10t27.5 -4.5q27 0 51 27l67 -64q-21 -27 -51.5 -44t-63.5 -17z" glyph-name="otilde" horiz-adv-x="499" unicode="õ"/>
<glyph d="M465 221q0 -51 -12.5 -93.5t-39 -73t-67 -47t-97.5 -16.5q-109 0 -162.5 62.5t-53.5 167.5v60q0 113 56.5 170.5t159.5 57.5q105 0 160.5 -57.5t55.5 -170.5v-60zM249 99q26 0 43.5 9.5t27.5 26.5t14 40t4 50v52q0 60 -20.5 92t-68.5 32t-68.5 -32t-20.5 -92v-52 q0 -27 4 -50t14 -40t27 -26.5t44 -9.5zM85 690h124v-117h-124v117zM289 690h123v-117h-123v117z" glyph-name="odieresis" horiz-adv-x="499" unicode="ö"/>
<glyph d="M58 410h389v-112h-389v112zM192 581h121v-121h-121v121zM192 248h121v-120h-121v120z" glyph-name="divide" horiz-adv-x="506" unicode="÷"/>
<glyph d="M63 -79l49 109q-40 29 -59.5 78t-19.5 113v60q0 113 56.5 170.5t159.5 57.5q40 0 73 -9l37 82h77l-50 -111q79 -56 79 -190v-60q0 -51 -12.5 -93.5t-39 -73t-67 -47t-97.5 -16.5q-41 0 -74 9l-35 -79h-77zM160 225q0 -20 1 -37q2 -17 7 -32l108 241q-6 2 -12.5 3t-14.5 1 q-48 0 -68.5 -32t-20.5 -92v-52zM249 99q26 0 43.5 9.5t27.5 26.5t14 40t4 50v52q0 39 -9 66l-108 -241q12 -3 28 -3z" glyph-name="oslash" horiz-adv-x="499" unicode="ø"/>
<glyph d="M474 0h-125v42q-16 -26 -40 -38.5t-74 -12.5q-38 0 -71.5 10t-58.5 33.5t-39.5 61t-14.5 92.5v312h128v-293q0 -60 20.5 -83t60.5 -23q87 0 87 105v294h127v-500zM351 567h-122l-91 158h143z" glyph-name="ugrave" horiz-adv-x="526" unicode="ù"/>
<glyph d="M474 0h-125v42q-16 -26 -40 -38.5t-74 -12.5q-38 0 -71.5 10t-58.5 33.5t-39.5 61t-14.5 92.5v312h128v-293q0 -60 20.5 -83t60.5 -23q87 0 87 105v294h127v-500zM266 725h143l-91 -158h-122z" glyph-name="uacute" horiz-adv-x="526" unicode="ú"/>
<glyph d="M474 0h-125v42q-16 -26 -40 -38.5t-74 -12.5q-38 0 -71.5 10t-58.5 33.5t-39.5 61t-14.5 92.5v312h128v-293q0 -60 20.5 -83t60.5 -23q87 0 87 105v294h127v-500zM316 710l108 -142h-114l-47 65l-47 -65h-114l108 142h106z" glyph-name="ucircumflex" horiz-adv-x="526" unicode="û"/>
<glyph d="M474 0h-125v42q-16 -26 -40 -38.5t-74 -12.5q-38 0 -71.5 10t-58.5 33.5t-39.5 61t-14.5 92.5v312h128v-293q0 -60 20.5 -83t60.5 -23q87 0 87 105v294h127v-500zM99 690h124v-117h-124v117zM303 690h123v-117h-123v117z" glyph-name="udieresis" horiz-adv-x="526" unicode="ü"/>
<glyph d="M139 500l111 -320l100 320h129l-175 -523q-17 -50 -35 -82.5t-43.5 -51.5t-62 -26t-88.5 -7v114q26 0 44.5 2.5t32 10t23 21t17.5 35.5l-187 507h134zM257 725h143l-91 -158h-122z" glyph-name="yacute" horiz-adv-x="479" unicode="ý"/>
<glyph d="M484 217q0 -49 -12.5 -90.5t-37 -71.5t-61 -47t-84.5 -17q-39 0 -66 7.5t-44 21.5v-210h-128v880h128v-223q37 42 111 42q43 0 79 -15t61.5 -43.5t39.5 -70t14 -95.5v-68zM268 99q26 0 43 9.5t27 26.5t14 40t4 50v52q0 60 -20 92t-68 32q-46 0 -67.5 -29t-21.5 -84v-63 q0 -27 4 -50t13.5 -40t27 -26.5t44.5 -9.5z" glyph-name="thorn" horiz-adv-x="517" unicode="þ"/>
</font>
</defs>
</svg>
