<svg width="16" height="20" viewBox="0 0 16 20" fill="none" xmlns="http://www.w3.org/2000/svg">
<path fill-rule="evenodd" clip-rule="evenodd" d="M15.56 10.318C15.2787 10.0371 14.8975 9.87932 14.5 9.87932C14.1025 9.87932 13.7212 10.0371 13.44 10.318L9.5 14.258V1.5C9.5 1.10218 9.34196 0.720644 9.06066 0.43934C8.77935 0.158035 8.39782 0 8 0C7.60217 0 7.22064 0.158035 6.93934 0.43934C6.65803 0.720644 6.5 1.10218 6.5 1.5V14.258L2.56 10.318C2.27565 10.053 1.89956 9.90879 1.51095 9.91565C1.12235 9.92251 0.75158 10.0799 0.476754 10.3548C0.201928 10.6296 0.0445047 11.0004 0.0376482 11.389C0.0307918 11.7776 0.175038 12.1537 0.439998 12.438L6.94 18.938L8 20L9.06 18.94L15.56 12.44C15.6994 12.3007 15.81 12.1353 15.8854 11.9532C15.9608 11.7712 15.9997 11.5761 15.9997 11.379C15.9997 11.1819 15.9608 10.9868 15.8854 10.8048C15.81 10.6227 15.6994 10.4573 15.56 10.318Z" fill="white"/>
</svg>
