<svg width="343" height="994" viewBox="0 0 343 994" fill="none" xmlns="http://www.w3.org/2000/svg">
<path d="M153.464 97.9308C153.464 109.547 156.368 119.227 161.208 126.971C166.048 134.715 171.856 141.007 178.148 145.363L178.148 183.599L4.3916 183.599L4.39159 14.1987L46.0156 14.1987L46.0156 143.427L133.62 143.427C127.812 138.103 122.488 131.327 118.132 122.615C114.26 113.903 111.84 103.255 111.84 90.1868C111.84 74.6988 114.744 61.6308 120.552 50.0148C126.36 38.8828 134.104 29.6867 144.752 21.9427C155.4 14.6827 168.468 9.35874 183.472 5.48675C198.96 2.09875 215.9 0.162772 234.292 0.162771C267.204 0.162769 293.824 8.87475 313.184 25.3307C332.544 41.7867 342.224 65.9868 342.224 97.9308C342.224 110.999 340.288 123.099 335.932 134.231C332.06 145.363 326.252 155.043 318.508 163.271C311.248 171.499 302.536 177.791 292.372 182.631C282.692 187.471 271.56 190.375 259.944 191.343L259.944 150.687C274.464 147.783 285.112 141.491 292.856 132.295C300.6 123.099 304.472 111.483 304.472 97.9308C304.472 80.5068 299.148 66.9548 288.5 56.7908C277.852 47.1108 259.46 41.7867 234.292 41.7867C208.156 41.7867 188.312 46.1427 174.276 54.8547C160.724 63.5667 153.464 78.0868 153.464 97.9308Z" fill="#111317" stroke="#ffffff" stroke-width="1"  />
<path d="M189.764 241.969C216.868 241.969 240.1 244.873 259.46 250.681C278.82 256.489 294.308 264.233 306.408 274.881C318.992 285.529 327.704 298.113 333.512 313.117C339.32 328.121 342.224 344.577 342.224 362.969C342.224 381.361 339.32 398.301 333.512 413.305C327.704 428.309 318.992 440.893 306.408 451.541C294.308 462.189 278.82 469.933 259.46 475.741C240.1 481.549 216.868 483.969 189.764 483.969L152.98 483.969C125.876 483.969 103.128 481.549 83.7676 475.741C64.4076 469.933 48.9196 462.189 36.3357 451.541C24.2356 440.893 15.0396 428.309 9.23165 413.305C3.42364 398.301 0.519649 381.361 0.519648 362.969C0.519647 344.577 3.42363 328.121 9.23164 313.117C15.0396 298.113 24.2356 285.529 36.3356 274.881C48.9196 264.233 64.4076 256.489 83.7676 250.681C103.128 244.873 125.876 241.969 152.98 241.969L189.764 241.969ZM189.764 442.345C231.388 442.345 260.912 435.569 278.336 422.017C295.76 408.465 304.472 389.105 304.472 362.969C304.472 350.385 302.536 338.769 298.18 329.089C294.308 319.409 287.532 310.697 278.336 303.921C269.14 297.145 257.04 292.305 242.52 288.917C228 285.529 210.576 283.593 189.764 283.593L152.98 283.593C132.652 283.593 114.744 285.529 100.224 288.917C85.7036 292.305 74.0877 297.145 64.8917 303.921C55.6956 310.697 48.9196 319.409 44.5636 329.089C40.6917 338.769 38.2717 350.385 38.2717 362.969C38.2717 389.105 47.4677 408.465 64.8917 422.017C82.3156 435.569 111.84 442.345 152.98 442.345L189.764 442.345Z" fill="#111317" stroke="#ffffff" stroke-width="1"/>
<path d="M338.352 535.752L338.352 731.772L303.504 731.772L164.596 614.16C151.044 603.028 138.46 593.832 126.844 587.056C115.228 580.28 102.644 576.408 90.0596 576.408C81.3476 576.408 74.0876 578.344 67.3116 581.248C61.0196 584.152 55.6956 588.508 51.3396 593.348C46.9836 598.188 43.5956 603.996 41.1756 610.772C39.2396 617.548 37.7876 623.84 37.7876 630.616C37.7876 646.104 42.1436 658.688 50.8556 668.852C59.5676 679.5 72.6356 684.824 90.0597 685.308L90.0597 726.448C76.5077 726.448 63.9236 724.028 52.7916 719.188C42.1436 714.348 32.4636 707.088 24.7197 698.376C16.9756 689.664 11.1676 679.5 6.81164 667.884C2.93966 656.268 0.519649 644.168 0.519649 630.616C0.519648 617.548 2.93965 604.964 6.81163 593.348C11.1676 581.732 17.4596 571.568 25.2036 562.856C32.9476 554.144 42.6277 547.368 53.7597 542.528C65.3757 537.688 77.9596 534.784 91.9957 534.784C102.16 534.784 111.84 536.72 120.552 539.624C129.264 543.012 137.976 547.368 145.72 552.208C153.948 557.048 161.692 562.856 168.952 568.664C176.212 574.472 182.988 580.28 189.28 585.12L300.6 677.08L300.6 535.752L338.352 535.752Z" fill="#111317" stroke="#ffffff" stroke-width="1"/>
<path d="M211.06 951.934L338.352 951.934L338.352 993.558L4.3916 993.558L4.3916 887.078C4.3916 848.358 13.5876 818.834 31.9796 797.538C50.3716 776.242 75.5396 765.594 107.968 765.594C140.396 765.594 165.564 776.242 183.956 797.054C202.348 818.35 211.06 848.358 211.06 887.078L211.06 951.934ZM173.308 887.078C173.308 859.006 167.984 838.678 156.368 826.094C144.752 813.51 128.78 807.218 107.968 807.218C87.1556 807.218 71.1836 813.51 59.5676 826.094C47.9516 838.678 42.1436 859.006 42.1436 887.078L42.1436 951.934L173.308 951.934L173.308 887.078Z" fill="#111317" stroke="#ffffff" stroke-width="1"/>
</svg>
