<svg width="243" height="342" viewBox="0 0 243 342" fill="none" xmlns="http://www.w3.org/2000/svg">
<path d="M242.145 189.412C242.145 216.516 239.241 239.748 233.433 259.108C227.625 278.468 219.881 293.956 209.233 306.056C198.585 318.64 186.001 327.352 170.997 333.16C155.993 338.968 139.537 341.872 121.145 341.872C102.753 341.872 85.8133 338.968 70.8093 333.16C55.8053 327.352 43.2212 318.64 32.5732 306.056C21.9252 293.956 14.1812 278.468 8.37323 259.108C2.56523 239.748 0.145264 216.516 0.145264 189.412L0.145264 152.628C0.145264 125.524 2.56523 102.776 8.37323 83.416C14.1812 64.056 21.9252 48.568 32.5732 35.984C43.2212 23.884 55.8053 14.6879 70.8093 8.87997C85.8133 3.07195 102.753 0.167969 121.145 0.167969C139.537 0.167969 155.993 3.07195 170.997 8.87997C186.001 14.6879 198.585 23.884 209.233 35.984C219.881 48.568 227.625 64.056 233.433 83.416C239.241 102.776 242.145 125.524 242.145 152.628V189.412ZM41.7692 189.412C41.7692 231.036 48.5452 260.56 62.0972 277.984C75.6492 295.408 95.0093 304.12 121.145 304.12C133.729 304.12 145.345 302.184 155.025 297.828C164.705 293.956 173.417 287.18 180.193 277.984C186.969 268.788 191.809 256.688 195.197 242.168C198.585 227.648 200.521 210.224 200.521 189.412V152.628C200.521 132.3 198.585 114.392 195.197 99.872C191.809 85.352 186.969 73.736 180.193 64.54C173.417 55.344 164.705 48.568 155.025 44.212C145.345 40.34 133.729 37.92 121.145 37.92C95.0093 37.92 75.6492 47.116 62.0972 64.54C48.5452 81.964 41.7692 111.488 41.7692 152.628L41.7692 189.412Z" fill="white"/>
</svg>
