<svg width="229" height="334" viewBox="0 0 229 334" fill="none" xmlns="http://www.w3.org/2000/svg">
<path d="M42.1802 206.708L42.1802 334H0.556152L0.556152 0.039917L107.036 0.039917C145.756 0.039917 175.28 9.23594 196.576 27.6279C217.872 46.0199 228.52 71.1879 228.52 103.616C228.52 136.044 217.872 161.212 197.06 179.604C175.764 197.996 145.756 206.708 107.036 206.708L42.1802 206.708ZM107.036 168.956C135.108 168.956 155.436 163.632 168.02 152.016C180.604 140.4 186.896 124.428 186.896 103.616C186.896 82.8039 180.604 66.8319 168.02 55.2159C155.436 43.5999 135.108 37.7919 107.036 37.7919L42.1802 37.7919L42.1802 168.956L107.036 168.956Z" fill="white"/>
</svg>
