<svg width="198" height="338" viewBox="0 0 198 338" fill="none" xmlns="http://www.w3.org/2000/svg">
<path d="M196.362 338L0.342224 338L0.342224 303.152L117.954 164.244C129.086 150.692 138.282 138.108 145.058 126.492C151.834 114.876 155.706 102.292 155.706 89.708C155.706 80.996 153.77 73.736 150.866 66.96C147.962 60.668 143.606 55.344 138.766 50.988C133.926 46.632 128.118 43.244 121.342 40.824C114.566 38.888 108.274 37.436 101.498 37.436C86.0102 37.436 73.4262 41.792 63.2622 50.504C52.6142 59.216 47.2902 72.284 46.8062 89.708L5.66623 89.708C5.66623 76.156 8.08624 63.572 12.9262 52.44C17.7662 41.792 25.0262 32.112 33.7382 24.368C42.4502 16.624 52.6142 10.816 64.2302 6.45995C75.8462 2.58797 87.9462 0.167969 101.498 0.167969C114.566 0.167969 127.15 2.58797 138.766 6.45995C150.382 10.816 160.546 17.108 169.258 24.852C177.97 32.596 184.746 42.276 189.586 53.408C194.426 65.024 197.33 77.608 197.33 91.644C197.33 101.808 195.394 111.488 192.49 120.2C189.102 128.912 184.746 137.624 179.906 145.368C175.066 153.596 169.258 161.34 163.45 168.6C157.642 175.86 151.834 182.636 146.994 188.928L55.0342 300.248L196.362 300.248V338Z" fill="white"/>
</svg>
