<svg width="192" height="338" viewBox="0 0 192 338" fill="none" xmlns="http://www.w3.org/2000/svg">
<path d="M94.1832 149.112C82.5672 149.112 72.8873 152.016 65.1432 156.856C57.3992 161.696 51.1072 167.504 46.7512 173.796H8.51526L8.51526 0.039917L177.915 0.039917V41.6639L48.6873 41.6639L48.6873 129.268C54.0113 123.46 60.7873 118.136 69.4993 113.78C78.2113 109.908 88.8593 107.488 101.927 107.488C117.415 107.488 130.483 110.392 142.099 116.2C153.231 122.008 162.427 129.752 170.171 140.4C177.431 151.048 182.755 164.116 186.627 179.12C190.015 194.608 191.951 211.548 191.951 229.94C191.951 262.852 183.239 289.472 166.783 308.832C150.327 328.192 126.127 337.872 94.1832 337.872C81.1152 337.872 69.0152 335.936 57.8832 331.58C46.7512 327.708 37.0713 321.9 28.8433 314.156C20.6153 306.896 14.3233 298.184 9.48328 288.02C4.64327 278.34 1.73924 267.208 0.77124 255.592H41.4272C44.3312 270.112 50.6233 280.76 59.8193 288.504C69.0153 296.248 80.6312 300.12 94.1832 300.12C111.607 300.12 125.159 294.796 135.323 284.148C145.003 273.5 150.327 255.108 150.327 229.94C150.327 203.804 145.971 183.96 137.259 169.924C128.547 156.372 114.027 149.112 94.1832 149.112Z" fill="white"/>
</svg>
